<svg id="Circle" xmlns="http://www.w3.org/2000/svg" viewBox="0 0 407.27 407.27"><title>RedRoma-Insignia</title><circle cx="203.64" cy="203.64" r="200" fill="#e30c02"/><circle cx="203.64" cy="203.64" r="200" fill="none" stroke="#f1d302" stroke-miterlimit="10" stroke-width="7.27"/><path d="M282,268c0.23,0.42.46,0.82,0.69,1.23,11.92-20,28-42,49.91-50.26-2.41-8.21-6.57-15.71-14.14-21.7-16.34-12.94-36.94-5.25-54.33,2,1.22-4-.57-13-1.94-18.67,4-.19,18.42,1,20.29-7.86-10.07,6-15.07,1.91-15.07,1.91a3.26,3.26,0,0,0,1.71-3.4c9.31-2.79,12.15-2,15.16-.48,0.41-1.22.25-1.56-.71-3.23-2.42-4.19-8.42-2.38-11.69-4.43-2.81-1.76-4-5.25-7.2-7.1-28.24-16.18-34.66,23.76-36.85,42.12-17.23-10.65-48.52-9.4-57.88,10.42a94.64,94.64,0,0,0-7.34,24.54c19.41,5.31,36.76,19.22,51.52,32.23,0-.14,0-0.26,0-0.4l6.37,3.68c-9,8.42-12.93,16.53-11.08,28.29,0.64,4.06-.68,13.17,1.26,16.35,3.43,5.62,10.7,4.14,3.85,11.38-4.69,5-19.87,7-19.5,15.55a121.77,121.77,0,0,0,17-7.74c-2.55,4.09-6.35,8.88-2.71,13.43,1.58-3,4.73-3.52,6.09-5.52,2-3-.11-5.86,4.64-8.14,2.43,3.28,1.33,7.95,3,10.38,0.91,1.31,5.46,2,7.5,4.27,0.29-2.85-.66-16.14-4.39-15.91,1.44-.09,8.06,2.24,8.77.57,0.88-2.06-8.55-4.72-9.42-5.77-1.57-1.89-2-3.78-1.46-7,4.83,7.43,18.57,20.47,24.68,7.13,2.47-5.39-.17-11.7-2.12-16.8-1-2.48-5.88-9.51-5.07-12,0.16-.49,9.3,12.49,9.67,15.42,0.84,6.78-1.48,14.8-4.5,20.85,13.91,0.12,35.82,5.5,38.06-13,1.56-12.9-.07-35.75-9.15-46.43A28.35,28.35,0,0,0,282,268Z" transform="translate(-45.36 -46.36)" fill="#f1d302" stroke="#020100" stroke-miterlimit="10"/><path d="M214.51,324.59c6.85-7.23-.41-5.76-3.85-11.38-1.94-3.18-.63-12.29-1.26-16.35-1.73-11,1.59-18.78,9.37-26.62-43.51,3.95-75.46,17-75.46,32.51,0,13.14,22.93,24.52,56.4,30.09C204.48,329.68,211.57,327.71,214.51,324.59Z" transform="translate(-45.36 -46.36)" fill="#23b5d3"/><g opacity="0.8"><g opacity="0.8"><path d="M207.4,298.12c-0.12-.82-0.36-2-0.54-3.12s-0.29-2.23-.34-3.35a29.9,29.9,0,0,1,.36-6.76,26.58,26.58,0,0,1,2-6.57c0.22-.54.5-1,0.77-1.56s0.55-1,.84-1.49l0.44-.72,0.09-.15h0a1,1,0,0,0,.29-0.13l0.32-.18,0.2-.12,0.12-.09a1.25,1.25,0,0,0,.18-0.18c0.09-.11.11-0.21,0-0.25a4,4,0,0,0-.59-0.08l-0.39,0a3.57,3.57,0,0,0-.75,0c-1.8.14-3.61,0.29-5.42,0.49-3.62.38-7.26,0.87-10.89,1.51a131.8,131.8,0,0,0-21.52,5.49A91,91,0,0,0,157,287.74a41,41,0,0,0-6.72,4.79,18.27,18.27,0,0,0-4.74,6.26,10.28,10.28,0,0,0-.27,7.39,17,17,0,0,0,4.47,6.54c4,3.82,9.14,6.59,14.5,8.89a113.71,113.71,0,0,0,18.71,5.87c3.16,0.73,6.35,1.35,9.55,1.91,1.6,0.29,3.22.53,4.83,0.79l1.22,0.18,0.3,0H199l0.19,0a0.44,0.44,0,0,0,.32-0.16l0,0h0l0.07,0,0.29-.17,0.57-.35c1.93-1.08,3.8-1.94,5.61-2.75s3.6-1.58,5.25-2.49c0.69-.35,1.49-0.78,2-1s0.87-.31.35,0.46c-0.89,1.43-3,2.95-5.08,4.16-2.38,1.38-4.74,2.65-6.86,4.11l-0.8.56-0.93.69a0.77,0.77,0,0,1-.12.08h-0.14l-0.28,0-0.57-.05-1-.09c-1.29-.09-2.56-0.22-3.85-0.33A148.09,148.09,0,0,1,178,330.65a69.3,69.3,0,0,1-23.66-9.78,47.46,47.46,0,0,1-7-5.46,22.4,22.4,0,0,1-5.27-7.19,14.36,14.36,0,0,1-.84-9,19.27,19.27,0,0,1,4.12-7.7,33.66,33.66,0,0,1,6.29-5.65,24.11,24.11,0,0,1,6.9-3.23c3.25-.85,2.36,0,7.08-2a126.55,126.55,0,0,1,18.23-6.43c5.73-1.41,11.2-2.35,16.67-3.21,2.73-.43,5.47-0.82,8.26-1.2l1-.15,0.52-.08,0.75-.09,3.12-.38,6.61-.81,1.42-.18,0.36,0a0.91,0.91,0,0,1,.3,0l0.34,0.08L219.79,272a50.84,50.84,0,0,0-3.45,4.19l-0.79,1.07-0.4.66c-0.27.44-.55,0.88-0.76,1.31a29.08,29.08,0,0,0-1.27,2.63A29.81,29.81,0,0,0,211,293c0,0.82,0,1.6,0,2.37l0,1.13c0,0.4,0,.86,0,1.25a35.47,35.47,0,0,1-.49,4.35,49.49,49.49,0,0,0-1,8.2,7.07,7.07,0,0,0,.76,3.31,10.15,10.15,0,0,0,2.36,2.81c0.47,0.41,1,.78,1.48,1.13s1,0.72,1.36,1a2.46,2.46,0,0,1,.83,1,1.7,1.7,0,0,1-.16,1.29,2.64,2.64,0,0,1-.62.78c-0.29.29-.61,0.56-1,0.89a8.09,8.09,0,0,0,.77-1.54,1.38,1.38,0,0,0,0-1.09,1.22,1.22,0,0,0-.39-0.39c-0.16-.11-0.28-0.16-0.5-0.28-0.65-.38-1.49-0.85-2.31-1.43a12.68,12.68,0,0,1-2.4-2.14,10.82,10.82,0,0,1-1-1.38c-0.16-.3-0.32-0.61-0.47-0.93l-0.29-.86a21.55,21.55,0,0,1-.61-6,13,13,0,0,1,.29-2.13A35,35,0,0,0,207.4,298.12Z" transform="translate(-45.36 -46.36)" fill="#ebebeb" opacity="0.8"/><path d="M207.88,299.61c0-.52-0.08-1-0.14-1.51s-0.14-.85-0.25-1.45l-0.3-1.63L207,293.37a31.48,31.48,0,0,1,0-6.65,25.62,25.62,0,0,1,1.6-6.6A26.51,26.51,0,0,1,210,277c0.27-.53.55-1,0.85-1.49l0.44-.72,0.1-.16v0l0,0a1.93,1.93,0,0,1,.54-0.45l1.18-.78,0.3-.21a0.16,0.16,0,0,0,0-.08,0.15,0.15,0,0,0-.13-0.11,15.27,15.27,0,0,0-2-.08h-0.31a3.87,3.87,0,0,0-.43,0l-1.36.11c-0.9.08-1.81,0.15-2.72,0.24-3.63.36-7.28,0.84-10.93,1.43A137,137,0,0,0,174,279.93a100,100,0,0,0-15.73,6.63,47.07,47.07,0,0,0-6.92,4.54,22,22,0,0,0-5.35,6,15.43,15.43,0,0,0-.88,1.75,12.5,12.5,0,0,0-.54,1.86,9.8,9.8,0,0,0-.09,3.83,12.08,12.08,0,0,0,1.28,3.69,19.14,19.14,0,0,0,2.33,3.3c3.69,4.09,8.72,7.06,14,9.5a105.86,105.86,0,0,0,18.64,6.22q4.74,1.15,9.54,2c1.6,0.29,3.21.58,4.83,0.83l2.43,0.38,1.22,0.18,0.5,0.05a2.09,2.09,0,0,0,.25-0.16l0.1-.07,0.34-.2c0.47-.28.94-0.54,1.41-0.78,0.93-.49,1.86-0.94,2.79-1.36l5.53-2.42a21.29,21.29,0,0,0,3-1.55c0.81-.52,1.43-1,0.92-0.23-0.9,1.44-3,3-5.1,4.17-2.38,1.38-4.74,2.65-6.86,4.11l-0.81.57-0.94.7a0.29,0.29,0,0,1-.27,0l-0.28,0-0.58-.05-1-.09c-1.29-.09-2.57-0.22-3.85-0.33A148,148,0,0,1,178,330.68a68.76,68.76,0,0,1-16.25-5.58,57.48,57.48,0,0,1-14.37-9.7,22.32,22.32,0,0,1-5.27-7.22,14.35,14.35,0,0,1-.81-9.05,19.35,19.35,0,0,1,4.14-7.71,33.77,33.77,0,0,1,6.31-5.65,24.24,24.24,0,0,1,6.91-3.23c3.25-.84,2.3,0,7-1.94a126.4,126.4,0,0,1,18.24-6.43c5.73-1.41,11.2-2.36,16.67-3.21,2.73-.43,5.47-0.82,8.26-1.2l1-.15,1.27-.17,3.14-.38,6.66-.81,1.45-.18a5.56,5.56,0,0,1,.68-0.07l0.36,0.07L219.87,272a51.16,51.16,0,0,0-3.48,4.23l-0.79,1.08-0.4.67c-0.27.44-.55,0.88-0.76,1.31-0.48.86-.89,1.74-1.27,2.63A29.8,29.8,0,0,0,211,293c0,0.82,0,1.6,0,2.36l0,1.13c0,0.39,0,.86,0,1.25a35.17,35.17,0,0,1-.49,4.36,50,50,0,0,0-1,8.19,7.07,7.07,0,0,0,.74,3.3,10.1,10.1,0,0,0,2.34,2.81c0.47,0.41,1,.78,1.47,1.13s1,0.72,1.37,1a2.57,2.57,0,0,1,.86,1.06,1.71,1.71,0,0,1-.15,1.32,2.67,2.67,0,0,1-.62.79c-0.29.29-.61,0.56-1,0.89a9,9,0,0,0,.77-1.5,1.64,1.64,0,0,0,.07-1.05,1.58,1.58,0,0,0-.72-0.73l-0.74-.46-1-.65a12.34,12.34,0,0,1-4-4,9.1,9.1,0,0,1-1-3.08,23,23,0,0,1-.22-2.83,11.44,11.44,0,0,1,.23-2.16A59,59,0,0,0,207.88,299.61Z" transform="translate(-45.36 -46.36)" fill="#f3f3f3" opacity="0.8"/><path d="M208.65,302.25c0-1.08-.08-2.14-0.17-3.16,0-.51-0.1-1-0.18-1.49L208,296.09a31.75,31.75,0,0,1-.61-6.42,25.76,25.76,0,0,1,3.46-12.86c0.32-.58.71-1.1,1.09-1.66a1.1,1.1,0,0,1,.17-0.21l0.14-.14,0.3-.3c0.7-.6,1.73-1.3,2.73-2.18l0.31-.28,0.19-.17,0.09-.09a0.15,0.15,0,0,0-.07,0h-1.06c-0.5,0-1,0-1.61,0l-1.83.07c-0.56,0-1.57.11-2.4,0.17-3.45.26-6.88,0.63-10.31,1.09a132,132,0,0,0-20.84,4.46,117.54,117.54,0,0,0-16,6,62.14,62.14,0,0,0-7.22,3.93,36.24,36.24,0,0,0-6.37,5,17,17,0,0,0-4.33,6.81,11.42,11.42,0,0,0,.43,8.05,19.48,19.48,0,0,0,5,6.68,39.8,39.8,0,0,0,7.12,5,85.2,85.2,0,0,0,18.35,7.36,176,176,0,0,0,19.2,4.25c1,0.18,2.15.38,3.35,0.55l1.63,0.24,0.29,0,0.14,0a0.37,0.37,0,0,0,.13-0.07l0.48-.32a44.13,44.13,0,0,1,6.58-3.22,41.72,41.72,0,0,0,4.28-1.94c1.49-.76,2.4-1.48,1.81-0.79a25.23,25.23,0,0,1-5.53,4c-1.2.68-2.38,1.35-3.51,2q-0.85.52-1.66,1.06l-0.79.55-1,.69-0.25.18-0.13.09a0.57,0.57,0,0,1-.15,0l-0.6-.06-1.15-.11-1.94-.16c-1.29-.12-2.57-0.22-3.85-0.37a143.92,143.92,0,0,1-15.94-2.49A66.45,66.45,0,0,1,160,324.69a63.16,63.16,0,0,1-7.38-4.44,41.36,41.36,0,0,1-6.82-5.88,22.59,22.59,0,0,1-2.8-3.66,16.08,16.08,0,0,1-1.91-4.28,14.6,14.6,0,0,1,.45-9.3,22.19,22.19,0,0,1,4.84-7.28,38.71,38.71,0,0,1,6.56-5.33,24.5,24.5,0,0,1,7-3,11,11,0,0,1,2.68-.39,17.44,17.44,0,0,0,3.79-1.28,133.07,133.07,0,0,1,18.33-6.31c5.76-1.35,11.24-2.3,16.72-3.13,2.74-.42,5.49-0.79,8.27-1.17l13.64-1.63a3.71,3.71,0,0,1,1,0l-4,4.45-2.06,2.35c-0.17.2-.36,0.4-0.51,0.6l-0.44.59-0.88,1.19a13.54,13.54,0,0,0-1.14,1.71c-0.29.46-.52,0.91-0.75,1.35a14.89,14.89,0,0,0-.66,1.35,14.29,14.29,0,0,0-.58,1.36,29.53,29.53,0,0,0-1.88,11.41c0,0.81.06,1.59,0.07,2.34,0,0.34,0,.9,0,1.31s0,0.85-.06,1.23c-0.12,1.58-.35,3-0.57,4.32s-0.45,2.65-.62,4a19.81,19.81,0,0,0-.18,4.12c0.07,2.06,1.67,4.06,3.59,5.47,0.48,0.36,1,.71,1.46,1.06a6.54,6.54,0,0,1,1.25,1.08,1.73,1.73,0,0,1,.42,1.5,3.89,3.89,0,0,1-.67,1.44,10,10,0,0,1-1.95,1.83c0.37-.56.72-1.1,1-1.63l0.22-.39,0.14-.3a4.68,4.68,0,0,0,.21-0.58,1.39,1.39,0,0,0-.14-1.15,3.55,3.55,0,0,0-.91-0.83,21.76,21.76,0,0,1-3.52-2.8,10.83,10.83,0,0,1-1.58-2.11,8.77,8.77,0,0,1-.86-2.8,9.45,9.45,0,0,1,0-2.2C208.87,306.47,208.72,304.39,208.65,302.25Z" transform="translate(-45.36 -46.36)" fill="#f7f7f7" opacity="0.8"/><path d="M210,302.43a33.11,33.11,0,0,0-.38-4.45c-0.23-1.32-.64-2.51-0.86-3.88a20.24,20.24,0,0,1-.32-2.18,22.26,22.26,0,0,1,1-9.34,18,18,0,0,1,1.71-3.62,15.3,15.3,0,0,1,1.62-2.08l0.77-.85c0.25-.25.51-0.52,0.78-0.84a51.58,51.58,0,0,1,4.62-4.84l0.19-.21,0.09-.1,0-.05s0,0,0,0l-0.54,0-1.11,0-2.33.11-5,.35c-3,.24-6,0.53-9,0.93A138.44,138.44,0,0,0,182.82,275a153,153,0,0,0-15.51,4.9c-2.35.91-4.61,1.84-6.79,2.89a60.34,60.34,0,0,0-6.34,3.42,38.37,38.37,0,0,0-5.86,4.36,21.54,21.54,0,0,0-4.79,6.08,13.1,13.1,0,0,0-1.27,8.37,14.52,14.52,0,0,0,1.55,4.25,21.53,21.53,0,0,0,2.72,3.73,36,36,0,0,0,7.8,6.19,64.6,64.6,0,0,0,8.25,4.2,115.17,115.17,0,0,0,17.86,5.8c2,0.54,5.6,1.21,9.18,1.8s7.19,1.11,9.22,1.56l0.44,0.1a0.61,0.61,0,0,0,.63-0.07c0.42-.28,1-0.63,1.62-1,1.28-.76,2.87-1.61,4.36-2.38,3-1.5,5.45-3,4.7-2.39a30.69,30.69,0,0,1-4.44,3c-1.2.68-2.35,1.35-3.43,2q-0.81.52-1.56,1.06l-1,.7-0.25.18a0.43,0.43,0,0,1-.28,0l-0.59-.06-3.85-.34c-1.22-.11-2.42-0.23-3.63-0.36a143.66,143.66,0,0,1-15.33-2.44,67.29,67.29,0,0,1-16.52-6,49.7,49.7,0,0,1-14.37-10.68,24.45,24.45,0,0,1-2.71-3.77,17.74,17.74,0,0,1-1.74-4.39,15.6,15.6,0,0,1-.29-4.76,16,16,0,0,1,1.22-4.48,22.74,22.74,0,0,1,5-7.09,39.87,39.87,0,0,1,6.63-5.21,25.26,25.26,0,0,1,7-3c3.27-.76,2.1-0.79,6.92-2.68a83.53,83.53,0,0,1,8.75-2.86c2.84-.8,5.74-1.48,9.13-2.32,5.76-1.34,11.24-2.27,16.73-3.09,2.74-.41,5.49-0.78,8.28-1.15l6.79-.8,3.57-.41,1.84-.22,0.94-.11a4.29,4.29,0,0,1,.44,0l0.29,0h0.21l-4.12,4.56-2.11,2.41c-0.7.81-1.22,1.61-1.85,2.44l-0.45.6-0.21.35-0.42.7c-0.3.47-.5,0.92-0.75,1.38a24.69,24.69,0,0,0-1.23,2.78,30.51,30.51,0,0,0-1.74,11.69l0.1,2.42a17.93,17.93,0,0,1-.08,2.55c-0.14,1.55-.38,2.94-0.59,4.28-0.4,2.68-1,5.21-.66,8.07a5.87,5.87,0,0,0,1.34,2.86,12.67,12.67,0,0,0,2.58,2.37,8.5,8.5,0,0,1,2.55,2.24,1.91,1.91,0,0,1,0,1.59,5.76,5.76,0,0,1-.85,1.4,11.44,11.44,0,0,1-2,1.8l1.05-1.56q0.25-.36.45-0.71a6.26,6.26,0,0,0,.31-0.55,2.68,2.68,0,0,0,.33-1,1.45,1.45,0,0,0-.37-1,6.07,6.07,0,0,0-1-.9c-0.48-.37-1-0.77-1.56-1.23a12,12,0,0,1-3.17-3.79,5.64,5.64,0,0,1-.19-2.67c0.17,1.38.27,1.56,0.17,1.06a18.21,18.21,0,0,1-.23-3.06c0-1.36.09-2.9,0.17-4.09Z" transform="translate(-45.36 -46.36)" fill="#fbfbfb" opacity="0.8"/></g></g><path d="M210.69,334.41c0.43-.68.87-1.35,1.27-2-1.18.63-2.26,1.2-3.32,1.74Z" transform="translate(-45.36 -46.36)" fill="#23b5d3"/><g opacity="0.8"><g opacity="0.8"><path d="M209.48,332.36A5.3,5.3,0,0,1,209,331c0-.05.1,0,0.19,0s0.52,0.2.67,0.22H210l3.06,3.27a1.31,1.31,0,0,0-1.67,0c-0.61.53-1.52,0.36-2.13,0.89l-0.44-2.52,0.15,0a6.49,6.49,0,0,0,1.49-.78,0.33,0.33,0,0,1,.4.24,2.48,2.48,0,0,1,0,1,5.05,5.05,0,0,1-.34.83c-0.49.85-1,1.88-1.45,2.66-0.31.5-.52,0.29-0.72,0l-4.54-6.36,3.67,1.37a1.29,1.29,0,0,0,.59.15,2.58,2.58,0,0,0,.66-1.08,1.12,1.12,0,0,1,.56.52,1.91,1.91,0,0,0,.75.88,6.32,6.32,0,0,1,.31-0.85,1.4,1.4,0,0,0,.93-0.4l2.09-3.69v5.92a0.83,0.83,0,0,0,0,.22c0.17,0.49.34,1-.33,0.92a16.5,16.5,0,0,1-2.19-.67,1.16,1.16,0,0,0-.82.06,2.1,2.1,0,0,1-.38-0.13c-0.6-.61-0.68-1-0.39-1.09a1.21,1.21,0,0,1,.29.09C209.66,332.65,209.52,332.48,209.48,332.36Z" transform="translate(-45.36 -46.36)" fill="#ebebeb" opacity="0.8"/><path d="M209.8,332.63a5.28,5.28,0,0,1-.52-1.36c0-.05.1,0,0.19,0s0.52,0.2.67,0.22h0.28l2.41,2.58a1.25,1.25,0,0,0-1.58,0c-0.63.55-1.52,0.42-2.13,1l-0.34-2,0.07,0a6.51,6.51,0,0,0,1.5-.78,0.32,0.32,0,0,1,.4.24,1.24,1.24,0,0,1,.07.77,5.08,5.08,0,0,1-.34.83c-0.49.85-1,1.88-1.45,2.66-0.31.5-.52,0.29-0.72,0l-4.62-6.46,3.73,1.39a1.3,1.3,0,0,0,.59.15,2.58,2.58,0,0,0,.66-1.08,1.13,1.13,0,0,1,.56.52,1.91,1.91,0,0,0,.74.89,6.27,6.27,0,0,1,.31-0.85,1.39,1.39,0,0,0,.93-0.4l2.13-3.78,0,6.08a0.83,0.83,0,0,0,0,.22c0.17,0.49.34,1-.33,0.92a16.48,16.48,0,0,1-2.19-.67,1.16,1.16,0,0,0-.82.06,2.1,2.1,0,0,1-.38-0.13c-0.6-.61-0.4-0.74-0.11-0.85a1.22,1.22,0,0,1,.28.09C210,332.92,209.84,332.75,209.8,332.63Z" transform="translate(-45.36 -46.36)" fill="#f3f3f3" opacity="0.8"/><path d="M210.41,333.13a5.32,5.32,0,0,1-.52-1.36c0-.05.1,0,0.19,0s0.52,0.2.67,0.22h0.47l1.17,1.25c-0.66-.36-1.22-0.56-1.54-0.21-0.64.56-1.4,0.61-2,1.27l-0.1.12-0.08-.44a9,9,0,0,0,1.36-.74c0.15,0,.39-0.27.51,0s0.29,0.18.18,0.51a5.09,5.09,0,0,1-.34.83c-0.49.85-1,1.88-1.46,2.66-0.29.46-.49,0.32-0.67,0.08l-5.69-7.42,4.67,1.57a1.64,1.64,0,0,0,.67.18,2.57,2.57,0,0,0,.65-1.08,1.13,1.13,0,0,1,.56.52c0.4,0.53.53,0.91,0.69,0.84a6.37,6.37,0,0,1,.31-0.85,1.54,1.54,0,0,0,.91-0.36l3.19-4.83-0.51,7.68a0.78,0.78,0,0,0,0,.26c0.17,0.49.34,1-.33,0.92a16.46,16.46,0,0,1-2.19-.66,1.15,1.15,0,0,0-.82.06,2.14,2.14,0,0,1-.38-0.13c-0.6-.61-0.12-0.5.17-0.61a1.22,1.22,0,0,1,.28.09C210.59,333.42,210.45,333.24,210.41,333.13Z" transform="translate(-45.36 -46.36)" fill="#f7f7f7" opacity="0.8"/><path d="M211.58,333.87c-0.14-.37-0.85-0.91-0.83-1.34,0-.05.1,0,0.19,0s0.52,0.2.67,0.22,0.56,0,.81,0l0.74-.06-1.44-.69a1,1,0,0,0-1.23-.06c-0.64.56-1.32,0.3-1.91,1a4.57,4.57,0,0,0-.37.45l-1.83,2.52,2.14-.7a5,5,0,0,0,.83-0.37c0.15,0,.61-0.79.73-0.54s0.61-.6.51-0.28a3.91,3.91,0,0,1-.27.71c-0.5.85-.89,1.73-1.39,2.52-0.28.45-.49,0.33-0.68,0.09l-6-7.4,5,1.53a1.79,1.79,0,0,0,.7.18,2.57,2.57,0,0,0,.65-1.08,1.13,1.13,0,0,1,.56.52c0.4,0.53.17,0.16,0.33,0.08a3.47,3.47,0,0,1,.66-0.12,1.64,1.64,0,0,0,.89-0.35l3.54-4.92-0.84,7.81a0.76,0.76,0,0,0,0,.29c0.17,0.49.34,1-.33,0.92a16.5,16.5,0,0,1-2.19-.67,1.15,1.15,0,0,0-.82.06A2.11,2.11,0,0,1,210,334c-0.6-.61.16-0.25,0.45-0.36,0,0,.44.2,0.53,0.23A3.3,3.3,0,0,0,211.58,333.87Z" transform="translate(-45.36 -46.36)" fill="#fbfbfb" opacity="0.8"/></g></g><path d="M279.39,270.8a21.63,21.63,0,0,1-3.81,3.1c9.08,10.69,10.71,33.54,9.15,46.43-2.24,18.48-24.15,13.1-38.06,13,3-6.05,5.34-14.06,4.5-20.85-0.36-2.93-9.51-15.9-9.67-15.42-0.81,2.52,4.12,9.54,5.07,12,2,5.1,4.59,11.41,2.12,16.8-6.11,13.34-19.85.3-24.68-7.13-0.5,3.2-.11,5.09,1.46,7,0.87,1,10.31,3.7,9.42,5.77-0.71,1.67-7.33-.66-8.77-0.57,1.57-.1,2.65,2.2,3.35,5.1,5.48,0.3,11.11.45,16.85,0.45,56.89,0,103-15.1,103-33.73C349.34,287.91,320.06,275.31,279.39,270.8Z" transform="translate(-45.36 -46.36)" fill="#23b5d3"/><g opacity="0.8"><g opacity="0.8"><path d="M285.07,326.83a14.78,14.78,0,0,1-3.5,4.78,16.9,16.9,0,0,1-4.89,3,32.42,32.42,0,0,1-10.38,2.12,99.64,99.64,0,0,1-10,0l-4.89-.2-1,0-1.21,0-2.45-.05-5,0c1.19-2.55,2.55-5.31,3.65-8l0.28-.74,0.17-.49,0.33-1c0.2-.67.41-1.33,0.59-2a47.39,47.39,0,0,0,1.4-6.68,33.24,33.24,0,0,0,.32-4.59,2.49,2.49,0,0,0-.27-1.14,17.88,17.88,0,0,0-.79-1.78c-1.39-2.64-3-5.3-4.74-7.88-0.43-.64-0.86-1.29-1.3-1.91l-0.66-.91-0.32-.41-0.12-.15,0,0s0,0,0,0l0.36-.37,0.33-.36a3.73,3.73,0,0,0,.26-0.29,2.46,2.46,0,0,0,.33-0.48,0.19,0.19,0,0,1,0-.07,8,8,0,1,1,1.51.28l0,0,0.14,0.1,0.28,0.2a0.7,0.7,0,0,1,0,.27s0.05,0,0,0a6,6,0,0,0,.18.83,14.43,14.43,0,0,0,.74,2c0.61,1.36,1.34,2.74,2.09,4.14,0.38,0.71.76,1.41,1.14,2.17,0.19,0.39.38,0.78,0.57,1.25l0.43,1.15a40.22,40.22,0,0,1,2.61,9.71,14.78,14.78,0,0,1-.38,5.38,10.14,10.14,0,0,1-.44,1.32,9.84,9.84,0,0,1-.57,1.24,14,14,0,0,1-1.43,2.3,9.2,9.2,0,0,1-4.61,3.38,9.75,9.75,0,0,1-5.68-.1,24.21,24.21,0,0,1-8.79-5.45,41.91,41.91,0,0,1-6.61-7.66l2.73-.58a10.8,10.8,0,0,0-.1,3.13,4.83,4.83,0,0,0,.39,1.31,4.49,4.49,0,0,0,.33.61c0.06,0.1.13,0.2,0.2,0.3l0.15,0.2a0.77,0.77,0,0,0,.27.24l0.38,0.2c1.48,0.68,3.18,1.32,4.81,2.07a21,21,0,0,1,2.5,1.32,6.55,6.55,0,0,1,1.33,1.08,2.91,2.91,0,0,1,.66,1.17,2.35,2.35,0,0,1,.07,1,3.33,3.33,0,0,1-.13.49l0,0.06h0l-0.09.17h0v0a1.3,1.3,0,0,1-1.07.24,14.08,14.08,0,0,1-1.92-.33l-0.95-.2a4.14,4.14,0,0,0-.48-0.07h0a0.73,0.73,0,0,1,.23.06,2.54,2.54,0,0,1,1.07,1.51c0.1,0.28.19,0.57,0.26,0.86l0.05,0.22a0.56,0.56,0,0,0,.21,0h0.45l1.79,0.05,5.13,0.16q6.79,0.27,13.56.08,13.54-.27,27-1.79c4.48-.54,9-1.16,13.42-1.93s8.91-1.71,13.34-2.8a136.2,136.2,0,0,0,13.15-3.93,84.41,84.41,0,0,0,12.62-5.58,42.77,42.77,0,0,0,7.71-5.32c0.59-.49,1.09-1.06,1.65-1.58s1-1.13,1.47-1.7a15.06,15.06,0,0,0,2.11-3.76,9.86,9.86,0,0,0-.35-8,15.09,15.09,0,0,0-2.36-3.55,24.13,24.13,0,0,0-3.2-3.06c-4.68-3.75-10.33-6.42-16.11-8.63a138.34,138.34,0,0,0-18-5.32c-7.73-1.79-14.88-3.08-22.84-4.35-3.28-.6-8.34-1.67-4.67-1.6s8.51,0.39,13.14.94a181.44,181.44,0,0,1,29.73,5.86,86.59,86.59,0,0,1,14.14,5.51,47.32,47.32,0,0,1,6.86,4.21,26.36,26.36,0,0,1,6.12,6.24,17.09,17.09,0,0,1,2.1,4.48,13.86,13.86,0,0,1,.46,5.07l0,0.64-0.13.62-0.27,1.23c-0.22.81-.55,1.56-0.83,2.33s-0.74,1.43-1.14,2.11-0.88,1.29-1.34,1.9a30.54,30.54,0,0,1-6.46,5.93c-1.14.85-2.35,1.55-3.54,2.29s-2.41,1.37-3.65,1.95a97.44,97.44,0,0,1-15.15,5.83c-5.17,1.56-10.44,2.84-15.83,4a284,284,0,0,1-30.17,4.71c-4.89.49-9.77,0.91-14.72,1.16s-10,.48-15.16.37c-1.37,0-2.75-.1-4.1-0.18l-5.51-.3-3.08-.19a4.81,4.81,0,0,1-.67-0.06l-0.28-.2-0.54-.37c-0.71-.47-1.33-0.86-1.84-1.17l-0.12-.08,0-.22-0.07-.41-0.14-.75-0.14-.66-0.08-.3,0-.14a0.3,0.3,0,0,1,0-.07l0.49-.12a12.31,12.31,0,0,0-.26-2,1.76,1.76,0,0,0-.62-1.11,0.48,0.48,0,0,0-.31-0.08h0.19a7.41,7.41,0,0,1,1,.19l1.38,0.34a7.68,7.68,0,0,0,1.87.27l0.17,0a1.19,1.19,0,0,0,.63-0.26,1.67,1.67,0,0,0,.49-1.11l1.42,0.44,0.35,0.11,0.18,0.06h0c0.11,0.11-.18-0.22.25,0.24h0a0.74,0.74,0,0,0-.24.08,2.14,2.14,0,0,0-.21-0.23,6.09,6.09,0,0,0-1-.7,24.66,24.66,0,0,0-2.56-1.21l-2.7-1.08c-0.46-.18-0.92-0.37-1.39-0.58a8.48,8.48,0,0,1-.82-0.42,2.67,2.67,0,0,1-.77-0.63c-0.13-.16-0.27-0.32-0.38-0.48s-0.21-.28-0.3-0.43a7.24,7.24,0,0,1-.53-0.93,7.72,7.72,0,0,1-.65-2.06,13.68,13.68,0,0,1,0-4l0.46-3.68,2.16,3.12a39.23,39.23,0,0,0,4.83,5.66,30.69,30.69,0,0,0,6.11,4.73c2.22,1.26,4.69,2,6.66,1.4s3.51-2.53,4.49-4.73a11.75,11.75,0,0,0,.52-7,42,42,0,0,0-2.26-7.33l-0.35-.93c-0.13-.33-0.19-0.49-0.34-0.79-0.26-.54-0.58-1.11-0.89-1.68-0.64-1.15-1.3-2.31-1.94-3.52a26,26,0,0,1-1.73-3.88,8.48,8.48,0,0,1-.3-1.16,5.24,5.24,0,0,1-.09-1.54l0-.25,0-.12V296.8a1.73,1.73,0,0,1,.35-0.73,1.59,1.59,0,0,1,1-.53,1.61,1.61,0,0,1,.55.05,1.37,1.37,0,0,1,.3.12,1.85,1.85,0,0,1,.31.2l0.13,0.11,0.15,0.15,0.22,0.24c0.26,0.3.47,0.57,0.69,0.85,1.69,2.2,3.23,4.43,4.77,6.75,0.77,1.16,1.52,2.34,2.25,3.57,0.36,0.62.72,1.24,1.07,1.9a11.71,11.71,0,0,1,1,2.3,4.69,4.69,0,0,1,.1.48,32.77,32.77,0,0,1-.61,11.4,46.57,46.57,0,0,1-1.52,5.4l-0.49,1.37c-0.11.29-.22,0.56-0.34,0.82l1.31,0h0.32l1,0.05,1.92,0.11c2.54,0.16,5,.33,7.49.4a59.71,59.71,0,0,0,7.19-.12,24.22,24.22,0,0,0,6.58-1.37,11.67,11.67,0,0,0,6.06-5,16.21,16.21,0,0,0,1.47-3.51c0.16-.62.31-1.22,0.44-1.86l0.34-1.91a86.2,86.2,0,0,0,1.12-15.7,65.61,65.61,0,0,0-1.64-12.89,46.09,46.09,0,0,0-5.12-13.27l-0.24-.42a2.12,2.12,0,0,0-.15-0.25l-0.32-.51-0.28-.48-0.13-.23-0.06-.11a0.1,0.1,0,0,1,0-.05l0.08,0a11.61,11.61,0,0,0,1.08-.58,7.64,7.64,0,0,1-.7.65l0,0,0.05,0.06,0.1,0.11,0.21,0.22,0.4,0.42c0.12,0.14.26,0.26,0.37,0.41v0l0,0.05,0.08,0.11,0.16,0.23,0.31,0.46a35.09,35.09,0,0,1,2.35,4,54.06,54.06,0,0,1,3.37,9.24,78.88,78.88,0,0,1,1.87,10,90.54,90.54,0,0,1,.58,10.08,33.55,33.55,0,0,1-.33,4.1c-0.11,2.24-.26,4.38-0.44,6.51A20.13,20.13,0,0,1,285.07,326.83Z" transform="translate(-45.36 -46.36)" fill="#ebebeb" opacity="0.8"/><path d="M285.88,323.38a16.14,16.14,0,0,1-2.44,5.61,14.7,14.7,0,0,1-4.5,4.16,26.09,26.09,0,0,1-11,3.16,82.14,82.14,0,0,1-10.81.16l-5.32-.23-2-.08-2.51-.07-5.15-.06,2.28-4.87c0.36-.83.77-1.67,1.09-2.52l0.36-1,0.23-.65a55.49,55.49,0,0,0,1.94-6.7,28.57,28.57,0,0,0,.93-7.56,0.92,0.92,0,0,0,0-.18,2.7,2.7,0,0,0-.09-0.33,29.49,29.49,0,0,0-2-4.07c-0.78-1.39-1.62-2.77-2.49-4.14s-1.76-2.73-2.68-4l-0.7-1-0.34-.45-0.16-.19-0.06-.07h0l0.56-.61,0.24-.31a0.8,0.8,0,0,0,.15-0.23,0.19,0.19,0,0,0,0-.1c-1.32-.24,1.81.31,1.5,0.27l0,0a0.2,0.2,0,0,1,0,.16l-0.06.3a0.32,0.32,0,0,1,0,.15,6,6,0,0,0,.2.92,25.91,25.91,0,0,0,1.87,4.28c0.75,1.46,1.57,2.87,2.35,4.47a12.63,12.63,0,0,1,.53,1.27l0.43,1.18c0.29,0.79.57,1.59,0.85,2.4a34.5,34.5,0,0,1,1.34,5,17.55,17.55,0,0,1,.18,5.39,13.37,13.37,0,0,1-1.93,5.14,9.92,9.92,0,0,1-4.05,3.89,8.59,8.59,0,0,1-5.66.54,16.51,16.51,0,0,1-5-2.13,30.84,30.84,0,0,1-4.2-3.16,41.81,41.81,0,0,1-6.86-7.85l2-.43a8.09,8.09,0,0,0,.34,4.69,4.85,4.85,0,0,0,.36.65c0.06,0.11.14,0.21,0.21,0.31l0.17,0.23a1,1,0,0,0,.37.31l0.52,0.26c0.42,0.2.87,0.39,1.33,0.58l2.76,1.16a25.75,25.75,0,0,1,2.76,1.38,7.14,7.14,0,0,1,1.39,1,2.92,2.92,0,0,1,.68,1,3.62,3.62,0,0,1,.11.4,2.94,2.94,0,0,1,0,.47,2.22,2.22,0,0,1-.1.46l0,0.06v0h0l-0.07.14h0a1.61,1.61,0,0,1-1.32.3,17.45,17.45,0,0,1-2.38-.41l-1.17-.25a5.07,5.07,0,0,0-.59-0.08h0a0.9,0.9,0,0,1,.28.07,3.14,3.14,0,0,1,1.32,1.87c0,1.95,1.93,1.24,3.24,1.43l5.21,0.15c2.18,0.05,4.35.15,6.52,0.17s4.34,0,6.5-.06c8.66-.17,17.29-0.67,25.9-1.61a220.13,220.13,0,0,0,25.8-4.26c4.29-1,8.57-2.12,12.8-3.51a102.14,102.14,0,0,0,12.5-4.91,59.76,59.76,0,0,0,8.24-4.73,27.56,27.56,0,0,0,6.66-6.28,11.76,11.76,0,0,0,2.51-8,11.47,11.47,0,0,0-1.2-4,18.89,18.89,0,0,0-2.51-3.55c-4.07-4.35-9.6-7.38-15.25-9.85a121.3,121.3,0,0,0-17.85-5.9c-7.68-2-14.82-3.41-22.77-4.82-3.27-.7-12.47-2-8.8-1.9s8.52,0.39,13.14.95a181.39,181.39,0,0,1,29.74,5.88,86.62,86.62,0,0,1,14.15,5.52,47.17,47.17,0,0,1,6.86,4.23,26,26,0,0,1,6.12,6.28,17.11,17.11,0,0,1,2.08,4.5,14.21,14.21,0,0,1,.42,5.09,6.18,6.18,0,0,1-.19,1.26l-0.27,1.24c-0.24.8-.55,1.56-0.86,2.33s-0.73,1.44-1.15,2.1-0.87,1.3-1.35,1.9a30.53,30.53,0,0,1-6.47,5.92,51.43,51.43,0,0,1-7.19,4.22,97.5,97.5,0,0,1-15.16,5.82c-5.17,1.56-10.44,2.84-15.84,4a284.38,284.38,0,0,1-30.17,4.7c-4.89.49-9.77,0.91-14.72,1.15s-10,.48-15.16.36c-1.37,0-2.75-.1-4.1-0.18l-5.6-.31-3.1-.19-0.36,0-0.17,0-0.07-.05-0.28-.2L229.3,338c-0.7-.48-1.33-0.87-1.84-1.18-0.11,0-.09-0.23-0.13-0.34l-0.07-.4-0.13-.73c-0.05-.23-0.09-0.44-0.14-0.64l-0.08-.29,0-.14s0,0,0-.07l0.49-.12a12.73,12.73,0,0,0-.25-2,1.73,1.73,0,0,0-.6-1.1c-0.79-.16.18-0.08,0.85,0.11l1.36,0.34a7.38,7.38,0,0,0,1.84.26h0.13a1.17,1.17,0,0,0,.63-0.26,1.72,1.72,0,0,0,.49-1.15l1.47,0.46,0.37,0.12,0.18,0.06h0c0.12,0.12-.21-0.24.29,0.26h0a0.75,0.75,0,0,0-.24.08,0.44,0.44,0,0,1-.24-0.2,6.06,6.06,0,0,0-1-.7,24.64,24.64,0,0,0-2.55-1.21l-2.7-1.08c-0.46-.18-0.92-0.37-1.39-0.58a8.49,8.49,0,0,1-.83-0.42,2.71,2.71,0,0,1-.77-0.64c-0.13-.16-0.27-0.32-0.39-0.49s-0.21-.28-0.3-0.43a7.28,7.28,0,0,1-.53-0.94,7.77,7.77,0,0,1-.65-2.07,13.72,13.72,0,0,1,0-4l0.48-3.79,2.23,3.21a39.14,39.14,0,0,0,4.81,5.64,30.78,30.78,0,0,0,6.08,4.72c2.22,1.27,4.67,2,6.64,1.43s3.5-2.48,4.49-4.68a11.67,11.67,0,0,0,.54-6.93,41.4,41.4,0,0,0-2.24-7.32l-0.35-.93c-0.13-.35-0.2-0.5-0.34-0.8-0.25-.53-0.57-1.11-0.88-1.68-0.63-1.15-1.3-2.31-1.94-3.52a26.78,26.78,0,0,1-1.75-3.88,9.07,9.07,0,0,1-.31-1.15,4,4,0,0,1-.11-0.7,7,7,0,0,1,0-.87l0-.25,0-.12v-0.11a2.84,2.84,0,1,1,.09-0.31,1.62,1.62,0,0,1,1.05-.95,1.5,1.5,0,0,1,.64,0,1.69,1.69,0,0,1,.48.14l0.11,0.06,0.19,0.13,0.08,0.06c0.12,0.1.14,0.13,0.21,0.19l0.23,0.25c0.26,0.3.48,0.57,0.7,0.85,1.69,2.2,3.24,4.43,4.78,6.75,0.77,1.16,1.52,2.34,2.25,3.57,0.37,0.61.73,1.24,1.07,1.9a12.37,12.37,0,0,1,1,2.28,4.61,4.61,0,0,1,.12.56,32.81,32.81,0,0,1-.62,11.41,46.6,46.6,0,0,1-1.53,5.41l-0.48,1.34c-0.1.28-.21,0.54-0.32,0.79h1.56l1,0.05,1.91,0.11c2.54,0.16,5,.33,7.48.41a60,60,0,0,0,7.17-.11,24.2,24.2,0,0,0,6.56-1.36,11.66,11.66,0,0,0,6.06-5,16.17,16.17,0,0,0,1.48-3.49c0.16-.61.31-1.22,0.44-1.85l0.34-1.91a86.11,86.11,0,0,0,1.13-15.69,65.64,65.64,0,0,0-1.63-12.89,46.13,46.13,0,0,0-5.1-13.26l-0.4-.7-0.33-.53-0.29-.5-0.13-.24-0.06-.12a0.13,0.13,0,0,1,0-.06l0.08,0a11.85,11.85,0,0,0,1.06-.58,8.07,8.07,0,0,1-.69.64l0,0,0,0.06,0.1,0.11,0.2,0.22,0.38,0.41a5.52,5.52,0,0,1,.85,1.1c0.38,0.58.79,1.15,1.14,1.76l1,1.86a44.2,44.2,0,0,1,3.08,8.16A79.08,79.08,0,0,1,287,306.42a34.25,34.25,0,0,1-.2,4.08c0,1.12,0,2.21-.08,3.28s-0.06,2.13-.11,3.18-0.13,2.1-.19,3.14A21.85,21.85,0,0,1,285.88,323.38Z" transform="translate(-45.36 -46.36)" fill="#f3f3f3" opacity="0.8"/><path d="M285.91,317.93a29,29,0,0,1-.9,6.27,14.57,14.57,0,0,1-3.07,5.68,14.75,14.75,0,0,1-5.23,3.72,25.1,25.1,0,0,1-6,1.72,62.44,62.44,0,0,1-12.08.54c-2-.06-4-0.17-6-0.26l-1.62-.08c-0.82,0-1.66-.06-2.5-0.09l-5.13-.1,0.39-.83c0.86-1.8,1.8-3.74,2.61-5.61l0.44-1.08,0.33-.84c0.23-.56.42-1.14,0.62-1.71,0.62-1.75,1.08-3.16,1.45-4.5a22.47,22.47,0,0,0,.8-4.17,25.53,25.53,0,0,0,0-3.94,7.41,7.41,0,0,0-.69-2c-0.33-.71-0.7-1.42-1.08-2.12-0.77-1.41-1.59-2.79-2.43-4.16s-1.71-2.72-2.61-4c-0.45-.66-0.9-1.32-1.37-2a10.41,10.41,0,0,0-.66-0.83v0l0.12-.16a0.82,0.82,0,0,0,.15-0.22,0.2,0.2,0,0,0,.05-0.15l0.63,0.11v0l0,0.15-0.06.3c0,0.17,0,.28,0,0.43a15,15,0,0,0,1.52,4.31c0.69,1.43,1.45,2.83,2.2,4.25a23.34,23.34,0,0,1,1.06,2.21l0.82,2.27c0.54,1.52,1,3,1.44,4.62,0.79,3.1,1.14,6.53-.12,9.59a13,13,0,0,1-2.61,4.1,7,7,0,0,1-4.3,2.15,10,10,0,0,1-4.81-.87,20.57,20.57,0,0,1-4.3-2.5,39.51,39.51,0,0,1-7.24-7.09c-0.62-.79-1.21-1.6-1.72-2.36v0a12.11,12.11,0,0,0-.09,3.66,6.6,6.6,0,0,0,1.45,3.15,3.14,3.14,0,0,0,1.24.82c0.46,0.21.92,0.41,1.38,0.6l2.75,1.16a24.33,24.33,0,0,1,2.63,1.31,6,6,0,0,1,1.16.86,1.76,1.76,0,0,1,.41.6,0.76,0.76,0,0,1-.07.71,1.34,1.34,0,0,1-1,.45,5.73,5.73,0,0,1-1.06,0,26.81,26.81,0,0,1-3.65-.63c-0.6-.13-1.19-0.27-1.78-0.38a7.61,7.61,0,0,0-.89-0.13h0a1.4,1.4,0,0,1,.43.11,2.93,2.93,0,0,1,1.28,1.24,8.89,8.89,0,0,1,.75,1.61c0.16,0.45.31,0.91,0.43,1.38,0.07,0.22.11,0.48,0.19,0.68l0.72,0,2.88,0.08,5.74,0.16c3.87,0.1,7.71.26,11.55,0.17,7.68-.09,15.32-0.46,23-1.15s15.39-1.67,23.19-3.15A165.81,165.81,0,0,0,320.25,326a80.77,80.77,0,0,0,17.38-8.09,33.85,33.85,0,0,0,7.2-6,15.37,15.37,0,0,0,1.42-1.83c0.21-.32.45-0.63,0.64-1l0.53-1a5.44,5.44,0,0,0,.46-1l0.39-1.07,0.24-1.1c0-.18.09-0.37,0.12-0.55l0-.56a12.11,12.11,0,0,0-2.67-8.38,28.41,28.41,0,0,0-6.77-6.2,74,74,0,0,0-17-8.06,134.94,134.94,0,0,0-13.13-3.82c-4.72-1.16-9.5-2.13-13.46-3-1.63-.4-5.77-1.1-9.05-1.63s-5.71-.87-3.87-0.82c3.67,0.12,8.53.5,13.15,1.12a167.67,167.67,0,0,1,29.69,6.47,74.08,74.08,0,0,1,14,6.14,36.94,36.94,0,0,1,6.64,4.85,20.33,20.33,0,0,1,5.26,7.5,14,14,0,0,1,.93,5.14,13.41,13.41,0,0,1-.27,2.61L351.86,307c-0.12.41-.28,0.8-0.42,1.2a21.38,21.38,0,0,1-5.36,7.78,38.82,38.82,0,0,1-6.92,5.23,63.19,63.19,0,0,1-7.38,3.82c-10,4.39-20.43,6.9-31.26,9a299,299,0,0,1-30.26,4.31c-4.9.47-9.79,0.78-14.74,1s-10,.31-15.17.17l-4.82-.19-3.54-.15-1.69-.08a6.31,6.31,0,0,1-.78-0.06l-0.29-.23c-0.76-.61-1.48-1.18-2.14-1.66l-0.24-.18a0.21,0.21,0,0,1-.08-0.17l0-.23-0.18-.87c-0.05-.28-0.13-0.55-0.19-0.81l-0.12-.37-0.06-.18,0-.09a0.67,0.67,0,0,1,.27-0.08l0.41-.09-0.05-1a4.46,4.46,0,0,0-.41-2.19,0.21,0.21,0,0,0-.12-0.06l-0.08,0a0.57,0.57,0,0,1,.25,0,4.88,4.88,0,0,1,.59.12l1,0.26a5.34,5.34,0,0,0,1.74.26,1,1,0,0,0,.53-0.23,2.09,2.09,0,0,0,.51-1.53l0.24,0.08,2,0.66,0.5,0.17,0.72,0.5h0a0.11,0.11,0,1,1,0,0,1,1,0,0,0-.37.11,1.35,1.35,0,0,0-.35.19s0,0,0,0-0.07-.07-0.1-0.11a5.84,5.84,0,0,0-1-.65,24.35,24.35,0,0,0-2.51-1.19l-2.69-1.08c-0.46-.18-0.92-0.37-1.4-0.59a8.59,8.59,0,0,1-.87-0.45,3.07,3.07,0,0,1-.83-0.69c-0.14-.18-0.29-0.35-0.42-0.53s-0.22-.29-0.32-0.45a7.7,7.7,0,0,1-.56-1,8.16,8.16,0,0,1-.68-2.18,14.17,14.17,0,0,1,0-4.13l0.59-4.73,2.79,4a39.22,39.22,0,0,0,5.43,6.2,25.35,25.35,0,0,0,6.91,4.78c2.19,0.95,4.32,1.13,5.87.11a7,7,0,0,0,2.13-2.18,12.86,12.86,0,0,0,.83-1.48,8.89,8.89,0,0,0,.56-1.5,13.61,13.61,0,0,0-.17-6.74,59.2,59.2,0,0,0-2.39-7.12,34.81,34.81,0,0,0-1.66-3.18c-0.63-1.13-1.28-2.29-1.89-3.5a18.12,18.12,0,0,1-1.58-4.09c0-.23-0.09-0.39-0.12-0.67a7.89,7.89,0,0,1,0-1,1.76,1.76,0,0,1,0-.32l0-.24v-0.11c0.08-.24-0.18.53,0.18-0.55a2,2,0,0,1,1.38-1.05,2,2,0,0,1,.71,0,2.13,2.13,0,0,1,.56.18l0.13,0.07,0.24,0.16,0.09,0.07a3.74,3.74,0,0,1,.37.36c0.57,0.64.93,1.13,1.35,1.69,1.61,2.16,3.12,4.35,4.61,6.63,0.74,1.14,1.47,2.3,2.18,3.51,0.35,0.61.7,1.23,1,1.91,0.17,0.34.33,0.69,0.49,1.08,0.08,0.19.16,0.4,0.23,0.64a5.45,5.45,0,0,1,.19.82c0.06,0.62.15,1.18,0.18,1.78a35.2,35.2,0,0,1-1,10.59,48.55,48.55,0,0,1-1.48,5l-0.11.31,0,0.09,0,0.14-0.08.26c-0.06.17-.12,0.32-0.17,0.46h1l0.35,0,1,0.05,2,0.12c2.7,0.16,5.35.32,7.94,0.38a51,51,0,0,0,7.51-.31,22.78,22.78,0,0,0,3.46-.68A14.3,14.3,0,0,0,277,329.2a10.83,10.83,0,0,0,5-5.61,18.19,18.19,0,0,0,1.08-3.61c0.23-1.3.46-2.57,0.63-3.85a85.89,85.89,0,0,0,.79-15.64,63.19,63.19,0,0,0-1.95-12.78,52,52,0,0,0-2.23-6.65c-0.5-1.07-1-2.17-1.55-3.21l-0.9-1.54A11.32,11.32,0,0,0,277,275l-0.4-.57-0.18-.27c0-.08-0.2-0.19,0-0.23,0.48-.25.92-0.51,1.35-0.78l0.63-.41c0.19-.13.52-0.38,0.78-0.59l-0.64.67-0.46.46a9.37,9.37,0,0,1-.9.77c-0.13,0,0,.14.08,0.21l0.19,0.22,0.37,0.43,0.36,0.42a1.93,1.93,0,0,1,.17.21l0.06,0.09,0.12,0.18a26.26,26.26,0,0,1,1.79,3l0.79,1.57c0.24,0.54.45,1.08,0.67,1.63a34.84,34.84,0,0,1,1.19,3.38,74,74,0,0,1,2.83,15.81,33.35,33.35,0,0,1,0,4.06C286,309.74,286.13,313.75,285.91,317.93Z" transform="translate(-45.36 -46.36)" fill="#f7f7f7" opacity="0.8"/><path d="M284.55,317.51c-0.1,1.63-.2,3.11-0.4,4.48a17.37,17.37,0,0,1-1.08,3.8,12.67,12.67,0,0,1-4.82,5.79,20.93,20.93,0,0,1-8.66,3,66.26,66.26,0,0,1-12.95.26c-1.2-.06-2.43-0.16-3.67-0.27l-1.95-.17-2.38-.17-1.65-.12-0.73-.06-0.35,0h-0.17s-0.14,0-.11,0a52.1,52.1,0,0,0,3.47-6.91,34.41,34.41,0,0,0,2.33-14.55,7.62,7.62,0,0,0-.68-2.07c-0.29-.65-0.61-1.27-0.94-1.89-0.66-1.24-1.36-2.44-2.08-3.64-1.45-2.38-2.95-4.71-4.58-7-0.21-.28-0.42-0.57-0.65-0.85a4.59,4.59,0,0,0-.42-0.47l-0.12-.09-0.12-.07a0.78,0.78,0,0,0-.2-0.07,0.83,0.83,0,0,0-.28,0,0.78,0.78,0,0,0-.55.4,0.87,0.87,0,1,0-.07.21V297l0,0.25a4.08,4.08,0,0,0,0,1.29,7.75,7.75,0,0,0,.26,1.11,25.49,25.49,0,0,0,1.68,3.95c0.63,1.25,1.31,2.48,2,3.69,0.32,0.61.64,1.22,0.89,1.79s0.48,1.28.71,1.91a37.6,37.6,0,0,1,2.18,7.85,11.42,11.42,0,0,1-1.3,7.51,9.4,9.4,0,0,1-2.4,2.91,5.66,5.66,0,0,1-3.34,1.14c-2.49,0-5.08-1.26-7.39-2.86a37.38,37.38,0,0,1-9-9.44l-1.61-2.41-0.42,2.84a13,13,0,0,0-.08,4.11,7.44,7.44,0,0,0,.63,2,8.43,8.43,0,0,0,1.08,1.67,2.66,2.66,0,0,0,.79.66l0.45,0.25,0.38,0.18c0.49,0.23,1,.43,1.45.64,0.95,0.4,1.87.78,2.75,1.17a21.94,21.94,0,0,1,2.46,1.25,4.72,4.72,0,0,1,.89.67,0.88,0.88,0,0,1,.11.13c0.06,0-.08.08,0.16,0a0.79,0.79,0,0,1,.2,0h0.08l-0.07,0-0.4-.31-0.67-.21-1.33-.42a1.57,1.57,0,0,1-.6,1.22,1.39,1.39,0,0,1-.69.21,9.58,9.58,0,0,1-2.47-.42c-0.4-.1-0.8-0.2-1.19-0.28a3.16,3.16,0,0,0-.58-0.07h0a0.63,0.63,0,0,1,.28.08,2.47,2.47,0,0,1,.87,1.26A12.69,12.69,0,0,1,228,334a1.73,1.73,0,0,0-.28.11l0,0.07,0.05,0.14,0.11,0.29,0.19,0.58,0.32,1.18c0.62,0.19,1.28.31,1.91,0.46l1,0.22,0.48,0.11a1.88,1.88,0,0,0,.56.08l2.9,0.09,9.19,0.28c5.67,0.12,11.35,0,17.18-.27a252.71,252.71,0,0,0,37.75-4.5,169.73,169.73,0,0,0,18.16-4.64,99.32,99.32,0,0,0,16.42-6.7,51.44,51.44,0,0,0,7.47-4.72,27.34,27.34,0,0,0,6.26-6.51,21.47,21.47,0,0,0,1.14-2c0.16-.36.29-0.73,0.43-1.1a6.77,6.77,0,0,0,.37-1.13,11.24,11.24,0,0,0,.38-2.36,11.84,11.84,0,0,0-.05-2.41,16,16,0,0,0-4.45-8.51,30.93,30.93,0,0,0-6.19-5,62.84,62.84,0,0,0-9-4.65,168.18,168.18,0,0,0-17-5.87c-0.8-.26-3-0.84-5.76-1.47s-6.17-1.28-9.35-1.8c-6.36-1.07-11.9-1.66-10.06-1.58a97.9,97.9,0,0,1,10.2,1,159.2,159.2,0,0,1,28.48,6.56,70.58,70.58,0,0,1,13.21,6,36.61,36.61,0,0,1,6.39,4.74,20.24,20.24,0,0,1,5.18,7.43,14,14,0,0,1,.93,5.15,13.3,13.3,0,0,1-.27,2.63l-0.28,1.29c-0.13.41-.29,0.81-0.43,1.21a21.53,21.53,0,0,1-5.48,7.87,50.66,50.66,0,0,1-14.7,9.16,112.08,112.08,0,0,1-15.75,5.39c-5.32,1.44-10.7,2.61-16.13,3.64s-10.42,1.84-15.44,2.52-9.93,1.24-14.84,1.66-9.79.76-14.75,0.94c-2.48.12-5,.16-7.5,0.21s-5.08-.06-7.67-0.1l-5.09-.19-3.16-.13c-0.5,0-1.06,0-1.49-.08l-0.52-.42c-0.69-.55-1.35-1.07-2-1.54l-0.23-.17c0-.13-0.07-0.29-0.1-0.43l-0.19-.84c-0.06-.28-0.14-0.54-0.2-0.79l-0.12-.38-0.06-.18,0-.09a0.62,0.62,0,0,1,.28-0.08l0.44-.09c0-1-.09-1.67-0.14-2.18a2.28,2.28,0,0,0-.27-1,0.11,0.11,0,0,0-.15,0s0,0,0,0h0.07a1.11,1.11,0,0,1,.29,0c0.18,0,.34.1,0.5,0.15l0.48,0.17a0.74,0.74,0,0,0,.61,0,0.66,0.66,0,0,0,.24-0.39,7.14,7.14,0,0,0,.15-2.09l2.23,0.78,1.13,0.4,0.57,0.2,0.28,0.1,0.14,0,1.34,0.88,0.05,0h0l-0.1,0a0.57,0.57,0,0,0-.19.07,1.6,1.6,0,0,0-.31.14l-0.14.1-0.21.13a2.77,2.77,0,0,0-.38.31l-0.05,0h0l0,0s-0.06-.06-0.13-0.1-0.25-.18-0.42-0.29a31.7,31.7,0,0,0-3.88-1.84l-2.1-.89c-0.38-.17-0.69-0.31-1.16-0.55a4.67,4.67,0,0,1-1.48-1.11c-0.16-.2-0.33-0.41-0.47-0.61s-0.23-.32-0.33-0.5a8.45,8.45,0,0,1-.58-1.08,8.67,8.67,0,0,1-.66-2.35,14.42,14.42,0,0,1,.16-4.24l0.92-5.93,3.25,5a37.26,37.26,0,0,0,5.43,6.56,29.2,29.2,0,0,0,3.45,2.85,15.82,15.82,0,0,0,4,2.1,7.41,7.41,0,0,0,3,.44,4.69,4.69,0,0,0,2.49-1.06,10,10,0,0,0,3.1-5.41c0.84-4.19-1.17-9.14-2.88-13.58-0.47-1-1.12-2.12-1.73-3.23s-1.25-2.27-1.84-3.48a15.91,15.91,0,0,1-1.47-4.17,6,6,0,0,1-.05-0.92,4.33,4.33,0,0,1,0-.44l0-.24,0-.24A2,2,0,0,1,242,295.1a2.13,2.13,0,0,1,.48.17,2.41,2.41,0,0,1,.4.26,3.08,3.08,0,0,1,.25.23c0.21,0.22.32,0.34,0.44,0.49,0.47,0.56.86,1.08,1.26,1.62,1.57,2.12,3,4.28,4.5,6.51,0.73,1.12,1.44,2.26,2.13,3.46,0.35,0.6.68,1.21,1,1.87a8.74,8.74,0,0,1,.89,2.51c0.13,1,.21,2,0.24,3a37.8,37.8,0,0,1-1.19,10q-0.61,2.41-1.45,4.73c-0.14.44-.21,0.68-0.33,1l0.88,0h0.1l0.5,0,1.06,0.06,2.11,0.12c2.79,0.16,5.53.33,8.2,0.36a46.79,46.79,0,0,0,7.72-.44,16.94,16.94,0,0,0,6.54-2.26,11.16,11.16,0,0,0,4.54-6,15.46,15.46,0,0,0,.52-1.83c0.16-.6.27-1.27,0.38-1.92,0.25-1.29.4-2.59,0.59-3.86a90.2,90.2,0,0,0,.61-15.65,61,61,0,0,0-2.12-12.74c-0.35-1.09-.66-2.22-1.07-3.32s-0.79-2.22-1.34-3.27L279,278.47c-0.27-.53-0.59-1-0.88-1.55l-0.45-.77a5,5,0,0,0-.42-0.64l-0.89-1.23-0.14-.19L276.2,274a0.51,0.51,0,0,1,.09-0.06c0.63-.37,1.21-0.73,1.75-1.09l0.4-.27,0.5-.37c0.33-.26.67-0.53,1-0.83q-0.43.5-.87,1l-0.75.76a9.47,9.47,0,0,1-1.16,1c-0.11,0,0,.11,0,0.17l0.16,0.19,0.31,0.37c0.2,0.25.39,0.48,0.57,0.72l0.69,1.12,0.73,1.23,1.22,2.59c0.35,0.89.68,1.81,1,2.74a74,74,0,0,1,3,13.78,17.8,17.8,0,0,1,.09,2.63c0,0.82-.11,1.57-0.09,2.23-0.19-2.67-.24-3-0.16-2s0.24,3.26.3,5.89,0,5.59-.15,7.88c-0.06,1.15-.15,2.13-0.22,2.82Z" transform="translate(-45.36 -46.36)" fill="#fbfbfb" opacity="0.8"/></g></g><path d="M221.41,335.48a8.69,8.69,0,0,0-1.42-3.3,5.46,5.46,0,0,0-3.06,2.9Q219.15,335.3,221.41,335.48Z" transform="translate(-45.36 -46.36)" fill="#23b5d3"/><g opacity="0.8"><g opacity="0.8"><path d="M219,334.69c-0.5-.19-1.16-0.15-1.43-0.27,0,0,0-.09.06-0.17s0.4-.39.48-0.51l0.08-.19,2.84,0.71a1.35,1.35,0,0,0-1.82.26c-0.31.43-.66,0.64-1,1.08l-1.15-1.88a4,4,0,0,0,1.57.13,11,11,0,0,0,2.18-.77,0.61,0.61,0,0,1,.63.25,1.68,1.68,0,0,1,.05,1,3.81,3.81,0,0,1-.43.83c-0.66.85-1.25,1.87-1.93,2.66s-1.17-.3-1.76-0.47a1.33,1.33,0,0,0-.67.09l-2.31.82,0.32-4.08a5.05,5.05,0,0,1,.31-1.66,0.87,0.87,0,0,1,.94-0.05c0.66,0.23.95,0.61,1.18,0.38a4.71,4.71,0,0,1,.57-1.28,8.19,8.19,0,0,0,1.6-.83l0.55-.56,1.4,1a2,2,0,0,0,.33.19c0.68,0.27,1.37.71,1,1.47a6.32,6.32,0,0,1-1.72,1.71,1.5,1.5,0,0,0-.45.86,1.53,1.53,0,0,1-.35.22c-0.87-.07-1.22-0.31-1.13-0.64a1.13,1.13,0,0,1,.25-0.18C219.31,334.74,219.08,334.73,219,334.69Z" transform="translate(-45.36 -46.36)" fill="#ebebeb" opacity="0.8"/><path d="M219.36,334.6c-0.51-.21-1.17-0.21-1.46-0.35,0,0,0-.1.06-0.18s0.4-.39.48-0.51a2.37,2.37,0,0,0,.1-0.3l2.24,0.56a1.43,1.43,0,0,0-1.83.35,11.29,11.29,0,0,0-1.08,1.29L217,334.07a4.18,4.18,0,0,0,1.46.07,11.06,11.06,0,0,0,2.19-.77,0.61,0.61,0,0,1,.63.25,0.92,0.92,0,0,1,.19.77,3.83,3.83,0,0,1-.43.83c-0.66.85-1.25,1.87-1.93,2.66s-1.17-.3-1.76-0.47a1.33,1.33,0,0,0-.67.09l-2.36.84,0.33-4.15a5.1,5.1,0,0,1,.32-1.67,0.88,0.88,0,0,1,.94-0.06c0.66,0.23.94,0.61,1.18,0.38a4.73,4.73,0,0,1,.58-1.28,8.22,8.22,0,0,0,1.6-.84l0.56-.57,1.44,1.07a2,2,0,0,0,.33.19c0.68,0.27,1.38.71,1,1.48a6.31,6.31,0,0,1-1.72,1.71,1.5,1.5,0,0,0-.44.86,1.53,1.53,0,0,1-.35.22c-0.87-.07-0.85-0.34-0.76-0.7a1.08,1.08,0,0,1,.25-0.18C219.72,334.67,219.49,334.66,219.36,334.6Z" transform="translate(-45.36 -46.36)" fill="#f3f3f3" opacity="0.8"/><path d="M220.14,334.45c-0.52-.26-1.2-0.31-1.51-0.51,0,0,0-.11,0-0.2s0.4-.4.47-0.53a4.41,4.41,0,0,0,.15-0.52l1.07,0.27a1.67,1.67,0,0,0-2,.19,6.1,6.1,0,0,0-1.41,1.95l0,0a5.38,5.38,0,0,0,1.16,0,11.15,11.15,0,0,0,2.19-.77,0.76,0.76,0,0,1,.77,0c0.08,0.17.45,0.19,0.32,0.51a3.84,3.84,0,0,1-.43.83c-0.66.85-1.25,1.87-1.93,2.66s-1.17-.3-1.77-0.47a1.25,1.25,0,0,0-.58.06l-2.85.88,0.56-4.62a6,6,0,0,1,.41-1.88,0.9,0.9,0,0,1,1-.06c0.66,0.24.86,0.62,1.11,0.36a5.21,5.21,0,0,1,.64-1.32,11.35,11.35,0,0,0,1.62-.81l0.84-.76,1.65,1.38a2.22,2.22,0,0,0,.39.25c0.7,0.3,1.4.77,1.07,1.56a6.27,6.27,0,0,1-1.72,1.74,1.54,1.54,0,0,0-.44.89,1.53,1.53,0,0,1-.35.23c-0.87-.07-0.48-0.38-0.4-0.77a1,1,0,0,1,.25-0.18C220.5,334.54,220.27,334.51,220.14,334.45Z" transform="translate(-45.36 -46.36)" fill="#f7f7f7" opacity="0.8"/><path d="M221.45,334c-0.43-.25-1.3,0-1.71-0.37a0.22,0.22,0,0,1,0-.23c0.11-.17.4-0.4,0.47-0.55a4.27,4.27,0,0,0,.18-1l-0.67-.17a1.74,1.74,0,0,0-1.81.36c-0.45.43-.87,0.76-1.26,1.14a3.61,3.61,0,0,0-.94,1.42l-0.58,1.73h1.64a3.56,3.56,0,0,0,.55,0,9.12,9.12,0,0,0,2.07-.51c0.23,0,.85-0.79,1.05-0.54s0.87-.6.74-0.27a2.89,2.89,0,0,1-.34.71c-0.66.85-1.17,1.73-1.85,2.51s-1.2-.3-1.8-0.47a1.22,1.22,0,0,0-.54,0l-2.9.84,0.62-4.57a6.19,6.19,0,0,1,.43-1.93,0.89,0.89,0,0,1,1-.05c0.66,0.24.27,0,.57-0.27a4.82,4.82,0,0,1,1.17-.7,13.14,13.14,0,0,0,1.59-.78l0.91-.78,1.61,1.41a2.22,2.22,0,0,0,.42.28c0.7,0.3,1.39.78,1.07,1.56a6.29,6.29,0,0,1-1.72,1.73,1.54,1.54,0,0,0-.44.89,1.5,1.5,0,0,1-.35.23c-0.87-.07-0.1-0.4,0-0.8a5,5,0,0,1,.51-0.29A2.63,2.63,0,0,0,221.45,334Z" transform="translate(-45.36 -46.36)" fill="#fbfbfb" opacity="0.8"/></g></g><path d="M217,392.86c-0.89,14.58,13.22,25.35,29.4,25.17,0.52,0-13-4.45-19-12.75,9.29,6.35,20.38,10.5,20.23,9.51-0.06-.45-0.13-0.89-0.21-1.31C244.24,395.43,233,402.95,217,392.86Z" transform="translate(-45.36 -46.36)" fill="#f1d302" stroke="#020100" stroke-miterlimit="10" stroke-width="0.5"/><path d="M194.3,407.88c11,0.32,22.5-2.25,21.9-3-0.27-.35-0.54-0.68-0.8-1C204,390.12,198,402.77,179.46,403c6.21,13,23.45,14.44,37.25,5.35C217.16,408,203.39,411.7,194.3,407.88Z" transform="translate(-45.36 -46.36)" fill="#f1d302" stroke="#020100" stroke-miterlimit="10" stroke-width="0.5"/><path d="M187.41,378.52c9.68,10.71,4.93,14.18,10.82,18.72a15.27,15.27,0,0,1,6.91-1.65c-2.34-7.9-8.48-12.89-7.92-12.76s8.79,4.89,11.52,13.52a17,17,0,0,1,6.47,5.1C214.57,384.29,199.6,374.58,187.41,378.52Z" transform="translate(-45.36 -46.36)" fill="#f1d302" stroke="#020100" stroke-miterlimit="10" stroke-width="0.5"/><path d="M164.41,393.5c10.51,2.48,22,2.29,21.55,1.43-0.2-.39-0.4-0.77-0.6-1.13-8.55-15.44-16.51-4.48-34.36-8,3.74,13.71,20.06,18.51,34.87,12.51C186.35,398.15,172.5,399,164.41,393.5Z" transform="translate(-45.36 -46.36)" fill="#f1d302" stroke="#020100" stroke-miterlimit="10" stroke-width="0.5"/><path d="M171.51,370c0.52,0.22,7.61,6.44,8.76,15.26a17.28,17.28,0,0,1,5.35,6.19c2.31-16.61-10.42-28.9-22.8-27.52,7.47,12.2,2.32,14.6,7.2,20.12a14.75,14.75,0,0,1,6.92-.22C176,375.78,171,369.78,171.51,370Z" transform="translate(-45.36 -46.36)" fill="#f1d302" stroke="#020100" stroke-miterlimit="10" stroke-width="0.5"/><path d="M157.61,382.16c0.49-.1-13-2.05-19.78-8.9,9.68,4.46,20.73,6.55,20.45,5.64-0.13-.41-0.25-0.81-0.38-1.2-5.57-16.52-15.09-7.56-31.63-14.45C127.52,377.15,142.37,385,157.61,382.16Z" transform="translate(-45.36 -46.36)" fill="#f1d302" stroke="#020100" stroke-miterlimit="10" stroke-width="0.5"/><path d="M158.54,375.49c5.06-15.49-5.06-29.81-17.19-30.94,5.09,13.19-.27,14.48,3.48,20.75a14.46,14.46,0,0,1,6.68,1.16c0.52-7.91-3.31-14.67-2.84-14.35s6.21,7.68,5.8,16.38A17.55,17.55,0,0,1,158.54,375.49Z" transform="translate(-45.36 -46.36)" fill="#f1d302" stroke="#020100" stroke-miterlimit="10" stroke-width="0.5"/><path d="M115.44,347.37c8.52,6.19,18.77,10.38,18.66,9.45,0-.42-0.1-0.83-0.16-1.23-2.53-17-13.18-10.24-27.89-20.11-1.18,13.59,11.74,24,26.85,24.34C133.38,359.82,120.82,355.28,115.44,347.37Z" transform="translate(-45.36 -46.36)" fill="#f1d302" stroke="#020100" stroke-miterlimit="10" stroke-width="0.5"/><path d="M134.93,353.6c7.49-13.86.23-29.6-11.21-33.08,2.63,13.66-2.73,13.84-.21,20.6a14.46,14.46,0,0,1,6.21,2.43c1.84-7.49-.66-14.73-0.28-14.33s4.65,8.6,2.77,16.87A17.69,17.69,0,0,1,134.93,353.6Z" transform="translate(-45.36 -46.36)" fill="#f1d302" stroke="#020100" stroke-miterlimit="10" stroke-width="0.5"/><path d="M98.53,318.21c7.12,7.62,16.24,13.66,16.29,12.75,0-.42,0-0.81.06-1.21C115.35,313,104,317.33,91.56,305c-3.45,12.8,7.15,25.38,21.6,28.64C113.62,333.7,102.35,326.87,98.53,318.21Z" transform="translate(-45.36 -46.36)" fill="#f1d302" stroke="#020100" stroke-miterlimit="10" stroke-width="0.5"/><path d="M116.17,328c9.55-11.82,5.27-28.35-5.11-33.94,0.19,13.63-5,12.73-3.71,19.71a14.6,14.6,0,0,1,5.54,3.56c3-6.82,1.87-14.26,2.18-13.8s3,9.17-.22,16.73A17.67,17.67,0,0,1,116.17,328Z" transform="translate(-45.36 -46.36)" fill="#f1d302" stroke="#020100" stroke-miterlimit="10" stroke-width="0.5"/><path d="M86.21,287.18c5.53,8.71,13.23,16.3,13.44,15.44,0.1-.39.18-0.78,0.26-1.15,3.31-16-8.33-14.06-18.12-28.37-5.49,11.59,2.53,25.74,15.82,31.72C98,305,88.39,296.23,86.21,287.18Z" transform="translate(-45.36 -46.36)" fill="#f1d302" stroke="#020100" stroke-miterlimit="10" stroke-width="0.5"/><path d="M102.33,266.53c-2.14,13.1-6.95,11.22-6.92,18.17a14.89,14.89,0,0,1,4.7,4.5c4.08-5.93,4.23-13.3,4.44-12.8s1.3,9.38-3.07,16a17.33,17.33,0,0,1,0,7.69C112.61,290.64,111.32,273.94,102.33,266.53Z" transform="translate(-45.36 -46.36)" fill="#f1d302" stroke="#020100" stroke-miterlimit="10" stroke-width="0.5"/><path d="M88.7,273.23c0.38,0.27-7.36-10-7.91-19.14,3.81,9.43,9.89,18.23,10.24,17.44,0.16-.36.31-0.71,0.44-1.05,5.89-14.65-5.58-15.11-12.52-30.75C71.72,249.74,77,264.88,88.7,273.23Z" transform="translate(-45.36 -46.36)" fill="#f1d302" stroke="#020100" stroke-miterlimit="10" stroke-width="0.5"/><path d="M99.75,237.48c-4.28,12.13-8.57,9.38-9.72,16a15.15,15.15,0,0,1,3.74,5.25c4.92-4.88,6.32-11.91,6.43-11.39s-0.35,9.24-5.66,14.71a16.79,16.79,0,0,1-1.36,7.35C105.49,262.61,107.1,246.36,99.75,237.48Z" transform="translate(-45.36 -46.36)" fill="#f1d302" stroke="#020100" stroke-miterlimit="10" stroke-width="0.5"/><path d="M80.64,222.14c2,9.79,6.37,19.4,6.83,18.72l0.6-.92c8.13-12.86-2.77-15.57-6.75-31.91-8.64,8.17-6.17,23.7,3.62,34C85.26,242.35,79.61,231,80.64,222.14Z" transform="translate(-45.36 -46.36)" fill="#f1d302" stroke="#020100" stroke-miterlimit="10" stroke-width="0.5"/><path d="M92.43,232.51a16,16,0,0,1-2.56,6.77c13-4.12,17.27-19.35,11.74-29.3-6.16,10.77-9.8,7.29-12,13.44a15.12,15.12,0,0,1,2.68,5.76c5.55-3.7,8.08-10.15,8.11-9.63S98.45,228.32,92.43,232.51Z" transform="translate(-45.36 -46.36)" fill="#f1d302" stroke="#020100" stroke-miterlimit="10" stroke-width="0.5"/><path d="M86.94,189.67c0.28,9.76,2.79,19.82,3.35,19.25q0.39-.38.74-0.76c10-10.7,0-15.44-1-31.86-9.65,6.12-9.93,21.46-2.32,33.25C87.93,209.92,84.46,197.91,86.94,189.67Z" transform="translate(-45.36 -46.36)" fill="#f1d302" stroke="#020100" stroke-miterlimit="10" stroke-width="0.5"/><path d="M96.46,201.92a15.13,15.13,0,0,1-3.6,6c13.1-1.39,19.81-15.12,16.21-25.72-7.73,9.08-10.62,5-13.8,10.48a15.28,15.28,0,0,1,1.59,6c5.93-2.45,9.45-8.12,9.39-7.62S102.93,199.1,96.46,201.92Z" transform="translate(-45.36 -46.36)" fill="#f1d302" stroke="#020100" stroke-miterlimit="10" stroke-width="0.5"/><path d="M97.29,160.28c-1.39,9.39-.7,19.5-0.07,19.06l0.83-.58c11.35-8.27,2.62-14.77,4.44-30.67-10.27,3.95-13.14,18.56-7.88,31.33C94.79,179.84,93.51,167.66,97.29,160.28Z" transform="translate(-45.36 -46.36)" fill="#f1d302" stroke="#020100" stroke-miterlimit="10" stroke-width="0.5"/><path d="M104.31,173.86a14.15,14.15,0,0,1-4.46,5c12.76,1.25,21.51-10.55,19.89-21.4-8.94,7.16-11,2.73-15,7.3a15,15,0,0,1,.49,6.09c6.09-1.17,10.43-5.9,10.28-5.44S111,172.44,104.31,173.86Z" transform="translate(-45.36 -46.36)" fill="#f1d302" stroke="#020100" stroke-miterlimit="10" stroke-width="0.5"/><path d="M112.41,135.3c-2.92,8.69-4,18.49-3.3,18.2l0.89-.39c12.26-5.66,5-13.58,9.46-28.42-10.48,1.75-15.71,15.14-12.85,28.37C106.7,153.49,107.55,141.61,112.41,135.3Z" transform="translate(-45.36 -46.36)" fill="#f1d302" stroke="#020100" stroke-miterlimit="10" stroke-width="0.5"/><path d="M118.21,147c6,0.08,11-3.59,10.74-3.17s-5.53,5.81-12.14,5.86a13.24,13.24,0,0,1-5.11,3.91c12,3.7,22.34-5.85,22.62-16.53-9.75,5.08-11,.44-15.55,4A14.53,14.53,0,0,1,118.21,147Z" transform="translate(-45.36 -46.36)" fill="#f1d302" stroke="#020100" stroke-miterlimit="10" stroke-width="0.5"/><path d="M131.81,113.6c-4.27,7.73-6.95,16.87-6.25,16.72l0.92-.2c12.65-3,7.1-12,13.85-25.27-10.3-.39-17.57,11.37-17.08,24.56C123.27,129.84,126.1,118.67,131.81,113.6Z" transform="translate(-45.36 -46.36)" fill="#f1d302" stroke="#020100" stroke-miterlimit="10" stroke-width="0.5"/><path d="M152.44,119.56c-10.17,2.94-10.56-1.73-15.53.79a14,14,0,0,1-1.54,5.53c5.73,1.26,11.07-1.27,10.79-.92s-6.27,4.46-12.59,3.2a12.39,12.39,0,0,1-5.54,2.73C138.83,136.78,150.35,129.7,152.44,119.56Z" transform="translate(-45.36 -46.36)" fill="#f1d302" stroke="#020100" stroke-miterlimit="10" stroke-width="0.5"/><path d="M153,96.07c-5.38,6.54-9.48,14.72-8.8,14.73h0.91c12.58-.37,8.8-10,17.5-21.38-9.76-2.4-18.69,7.39-20.46,20.07C142.12,109.88,146.71,99.78,153,96.07Z" transform="translate(-45.36 -46.36)" fill="#f1d302" stroke="#020100" stroke-miterlimit="10" stroke-width="0.5"/><path d="M171.68,105.82c-10.2.8-9.78-3.73-14.95-2.31a13.11,13.11,0,0,1-2.41,5c5.26,2.33,10.78,1,10.45,1.25s-6.74,3-12.55.58a11.67,11.67,0,0,1-5.75,1.51A15.88,15.88,0,0,0,171.68,105.82Z" transform="translate(-45.36 -46.36)" fill="#f1d302" stroke="#020100" stroke-miterlimit="10" stroke-width="0.5"/><path d="M177.27,83.58c-6.23,5.17-11.53,12.17-10.88,12.31l0.87,0.17c12.06,2.11,10.09-7.83,20.3-16.94-8.89-4.2-19.06,3.37-22.9,15.11C164.54,94.6,170.63,85.88,177.27,83.58Z" transform="translate(-45.36 -46.36)" fill="#f1d302" stroke="#020100" stroke-miterlimit="10" stroke-width="0.5"/><path d="M179.55,91.39a12.34,12.34,0,0,1-3.14,4.27c4.61,3.25,10.11,3,9.75,3.24s-6.93,1.56-12.06-1.9a11.24,11.24,0,0,1-5.73.31c7.55,9.2,19.93,7.32,25-.78C183.55,95.28,184.72,91,179.55,91.39Z" transform="translate(-45.36 -46.36)" fill="#f1d302" stroke="#020100" stroke-miterlimit="10" stroke-width="0.5"/><path d="M252.58,413.48c-0.07.42-.15,0.86-0.21,1.31-0.15,1,10.94-3.16,20.23-9.51-6,8.3-19.55,12.75-19,12.75,16.17,0.17,30.28-10.6,29.4-25.17C267,402.95,255.76,395.43,252.58,413.48Z" transform="translate(-45.36 -46.36)" fill="#f1d302" stroke="#020100" stroke-miterlimit="10" stroke-width="0.5"/><path d="M258.13,385.4c0.43-.41-2.46,7.26-0.7,15.33a15.44,15.44,0,0,1,6.71-2.4c2.89-7.15-2.84-7.51.35-22-6.63,1.8-12.07,7.44-14.49,14.6-2.43-7.16-7.87-12.79-14.49-14.6,3.19,14.54-2.54,14.9.35,22a15.44,15.44,0,0,1,6.71,2.4c1.76-8.07-1.12-15.74-.7-15.33s5.21,9.06,3.43,18a18.88,18.88,0,0,1,3.12,8,27.91,27.91,0,0,0,1.58-3.78,27.9,27.9,0,0,0,1.58,3.78,18.88,18.88,0,0,1,3.12-8C252.92,394.46,257.7,385.81,258.13,385.4Z" transform="translate(-45.36 -46.36)" fill="#f1d302" stroke="#020100" stroke-miterlimit="10" stroke-width="0.5"/><path d="M284.61,403.85c-0.27.32-.54,0.66-0.8,1-0.6.77,10.9,3.34,21.9,3-9.1,3.82-22.86.14-22.42,0.43,13.8,9.09,31,7.65,37.25-5.35C302,402.77,296,390.12,284.61,403.85Z" transform="translate(-45.36 -46.36)" fill="#f1d302" stroke="#020100" stroke-miterlimit="10" stroke-width="0.5"/><path d="M291.25,396.34c2.73-8.63,11-13.4,11.52-13.52s-5.58,4.87-7.92,12.76a15.27,15.27,0,0,1,6.91,1.65c5.89-4.54,1.14-8,10.82-18.72-12.18-3.94-27.16,5.77-27.81,22.92A17,17,0,0,1,291.25,396.34Z" transform="translate(-45.36 -46.36)" fill="#f1d302" stroke="#020100" stroke-miterlimit="10" stroke-width="0.5"/><path d="M314.63,393.8c-0.2.36-.4,0.74-0.6,1.13-0.44.86,11,1,21.55-1.43-8.08,5.46-21.93,4.65-21.46,4.85,14.8,6,31.12,1.2,34.87-12.51C331.14,389.33,323.19,378.36,314.63,393.8Z" transform="translate(-45.36 -46.36)" fill="#f1d302" stroke="#020100" stroke-miterlimit="10" stroke-width="0.5"/><path d="M330,384.05c4.88-5.52-.27-7.93,7.2-20.12-12.38-1.37-25.11,10.91-22.8,27.52a17.28,17.28,0,0,1,5.35-6.19c1.15-8.83,8.24-15,8.76-15.26s-4.53,5.78-5.42,13.83A14.75,14.75,0,0,1,330,384.05Z" transform="translate(-45.36 -46.36)" fill="#f1d302" stroke="#020100" stroke-miterlimit="10" stroke-width="0.5"/><path d="M342.1,377.69c-0.13.39-.26,0.79-0.38,1.2-0.27.91,10.78-1.18,20.45-5.64-6.83,6.85-20.27,8.8-19.78,8.9,15.24,2.83,30.1-5,31.34-18.91C357.19,370.13,347.67,361.17,342.1,377.69Z" transform="translate(-45.36 -46.36)" fill="#f1d302" stroke="#020100" stroke-miterlimit="10" stroke-width="0.5"/><path d="M341.46,375.49a17.55,17.55,0,0,1,4.07-7c-0.41-8.7,5.35-16.07,5.8-16.38s-3.36,6.44-2.84,14.35a14.46,14.46,0,0,1,6.68-1.16c3.75-6.27-1.61-7.56,3.48-20.75C346.53,345.68,336.41,360,341.46,375.49Z" transform="translate(-45.36 -46.36)" fill="#f1d302" stroke="#020100" stroke-miterlimit="10" stroke-width="0.5"/><path d="M366.06,355.59c-0.06.39-.11,0.81-0.16,1.23-0.11.93,10.14-3.26,18.66-9.45-5.38,7.91-17.95,12.45-17.46,12.44,15.11-.29,28-10.74,26.85-24.34C379.25,345.35,368.59,338.64,366.06,355.59Z" transform="translate(-45.36 -46.36)" fill="#f1d302" stroke="#020100" stroke-miterlimit="10" stroke-width="0.5"/><path d="M370.28,343.54a14.46,14.46,0,0,1,6.21-2.43c2.53-6.76-2.83-6.94-.21-20.6-11.44,3.48-18.71,19.22-11.21,33.08a17.69,17.69,0,0,1,2.72-7.52c-1.87-8.27,2.39-16.48,2.77-16.87S368.44,336.05,370.28,343.54Z" transform="translate(-45.36 -46.36)" fill="#f1d302" stroke="#020100" stroke-miterlimit="10" stroke-width="0.5"/><path d="M385.12,329.75c0,0.39,0,.79.06,1.21,0.05,0.91,9.17-5.13,16.29-12.75-3.82,8.66-15.09,15.49-14.63,15.39,14.44-3.26,25-15.84,21.6-28.64C396,317.33,384.65,313,385.12,329.75Z" transform="translate(-45.36 -46.36)" fill="#f1d302" stroke="#020100" stroke-miterlimit="10" stroke-width="0.5"/><path d="M387.12,317.36a14.6,14.6,0,0,1,5.54-3.56c1.27-7-3.91-6.08-3.71-19.71-10.38,5.59-14.66,22.13-5.11,33.94a17.67,17.67,0,0,1,1.32-7.75c-3.21-7.56-.52-16.27-0.22-16.73S384.07,310.55,387.12,317.36Z" transform="translate(-45.36 -46.36)" fill="#f1d302" stroke="#020100" stroke-miterlimit="10" stroke-width="0.5"/><path d="M400.09,301.47c0.08,0.37.16,0.75,0.26,1.15,0.21,0.86,7.91-6.73,13.44-15.44C411.61,296.23,402,305,402.4,304.82c13.29-6,21.31-20.13,15.82-31.72C408.42,287.41,396.79,285.5,400.09,301.47Z" transform="translate(-45.36 -46.36)" fill="#f1d302" stroke="#020100" stroke-miterlimit="10" stroke-width="0.5"/><path d="M399.89,289.2a14.89,14.89,0,0,1,4.7-4.5c0-6.94-4.78-5.07-6.92-18.17-9,7.41-10.28,24.11.89,33.55a17.33,17.33,0,0,1,0-7.69c-4.37-6.62-3.28-15.5-3.07-16S395.81,283.27,399.89,289.2Z" transform="translate(-45.36 -46.36)" fill="#f1d302" stroke="#020100" stroke-miterlimit="10" stroke-width="0.5"/><path d="M411.3,273.23c11.71-8.35,17-23.49,9.75-33.51-6.94,15.64-18.41,16.11-12.52,30.75,0.14,0.34.28,0.69,0.44,1.05,0.35,0.79,6.43-8,10.24-17.44C418.67,263.19,410.92,273.5,411.3,273.23Z" transform="translate(-45.36 -46.36)" fill="#f1d302" stroke="#020100" stroke-miterlimit="10" stroke-width="0.5"/><path d="M406.24,258.77a15.15,15.15,0,0,1,3.74-5.25c-1.15-6.66-5.44-3.91-9.72-16-7.35,8.88-5.74,25.13,6.57,32a16.79,16.79,0,0,1-1.36-7.35c-5.31-5.47-5.78-14.2-5.66-14.71S401.32,253.88,406.24,258.77Z" transform="translate(-45.36 -46.36)" fill="#f1d302" stroke="#020100" stroke-miterlimit="10" stroke-width="0.5"/><path d="M411.92,239.93l0.6,0.92c0.47,0.68,4.8-8.93,6.83-18.72,1,8.82-4.62,20.22-4.31,19.89,9.79-10.3,12.26-25.83,3.62-34C414.69,224.36,403.79,227.08,411.92,239.93Z" transform="translate(-45.36 -46.36)" fill="#f1d302" stroke="#020100" stroke-miterlimit="10" stroke-width="0.5"/><path d="M407.74,229.17a15.12,15.12,0,0,1,2.68-5.76c-2.24-6.15-5.88-2.67-12-13.44-5.53,9.95-1.21,25.19,11.74,29.3a16,16,0,0,1-2.56-6.77c-6-4.19-8-12.45-7.93-13S402.2,225.47,407.74,229.17Z" transform="translate(-45.36 -46.36)" fill="#f1d302" stroke="#020100" stroke-miterlimit="10" stroke-width="0.5"/><path d="M409,208.16q0.35,0.38.74,0.76c0.56,0.57,3.07-9.49,3.35-19.25,2.49,8.24-1,20.25-.74,19.88,7.6-11.79,7.32-27.13-2.32-33.25C409,192.72,399,197.46,409,208.16Z" transform="translate(-45.36 -46.36)" fill="#f1d302" stroke="#020100" stroke-miterlimit="10" stroke-width="0.5"/><path d="M403.13,198.69a15.28,15.28,0,0,1,1.59-6c-3.19-5.43-6.08-1.4-13.8-10.48-3.6,10.6,3.12,24.33,16.21,25.72a15.13,15.13,0,0,1-3.6-6c-6.47-2.83-9.73-10.35-9.79-10.85S397.2,196.24,403.13,198.69Z" transform="translate(-45.36 -46.36)" fill="#f1d302" stroke="#020100" stroke-miterlimit="10" stroke-width="0.5"/><path d="M401.94,178.77l0.83,0.58c0.63,0.43,1.32-9.68-.07-19.06,3.78,7.38,2.5,19.55,2.68,19.14,5.27-12.76,2.39-27.38-7.88-31.33C399.32,164,390.59,170.5,401.94,178.77Z" transform="translate(-45.36 -46.36)" fill="#f1d302" stroke="#020100" stroke-miterlimit="10" stroke-width="0.5"/><path d="M400.14,178.87a14.15,14.15,0,0,1-4.46-5c-6.67-1.43-11.06-8-11.21-8.44s4.19,4.26,10.28,5.44a15,15,0,0,1,.49-6.09c-4-4.57-6.05-.14-15-7.3C378.63,168.32,387.39,180.12,400.14,178.87Z" transform="translate(-45.36 -46.36)" fill="#f1d302" stroke="#020100" stroke-miterlimit="10" stroke-width="0.5"/><path d="M390,153.11l0.89,0.39c0.68,0.29-.39-9.51-3.3-18.2,4.86,6.31,5.71,18.19,5.81,17.76,2.86-13.23-2.37-26.63-12.85-28.37C385,139.52,377.75,147.44,390,153.11Z" transform="translate(-45.36 -46.36)" fill="#f1d302" stroke="#020100" stroke-miterlimit="10" stroke-width="0.5"/><path d="M365.67,137c0.28,10.68,10.66,20.23,22.62,16.53a13.24,13.24,0,0,1-5.11-3.91c-6.61-.05-11.92-5.44-12.14-5.86s4.72,3.25,10.74,3.17a14.53,14.53,0,0,1-.57-5.91C376.65,137.48,375.42,142.12,365.67,137Z" transform="translate(-45.36 -46.36)" fill="#f1d302" stroke="#020100" stroke-miterlimit="10" stroke-width="0.5"/><path d="M373.52,130.13l0.92,0.2c0.7,0.14-2-9-6.25-16.72,5.71,5.07,8.54,16.24,8.56,15.82,0.49-13.19-6.78-25-17.08-24.56C366.42,118.14,360.86,127.12,373.52,130.13Z" transform="translate(-45.36 -46.36)" fill="#f1d302" stroke="#020100" stroke-miterlimit="10" stroke-width="0.5"/><path d="M372,130.89a12.39,12.39,0,0,1-5.54-2.73c-6.32,1.25-12.31-2.85-12.59-3.2s5.06,2.17,10.79.92a14,14,0,0,1-1.54-5.53c-5-2.52-5.36,2.15-15.53-.79C349.65,129.7,361.17,136.78,372,130.89Z" transform="translate(-45.36 -46.36)" fill="#f1d302" stroke="#020100" stroke-miterlimit="10" stroke-width="0.5"/><path d="M354.86,110.79h0.91c0.68,0-3.42-8.19-8.8-14.73,6.31,3.71,10.91,13.81,10.85,13.41C356.05,96.8,347.12,87,337.37,89.41,346.06,100.76,342.28,110.42,354.86,110.79Z" transform="translate(-45.36 -46.36)" fill="#f1d302" stroke="#020100" stroke-miterlimit="10" stroke-width="0.5"/><path d="M353.52,111.82a11.67,11.67,0,0,1-5.75-1.51c-5.81,2.44-12.22-.3-12.55-0.58s5.2,1.08,10.45-1.25a13.11,13.11,0,0,1-2.41-5c-5.17-1.42-4.75,3.11-14.95,2.31A15.88,15.88,0,0,0,353.52,111.82Z" transform="translate(-45.36 -46.36)" fill="#f1d302" stroke="#020100" stroke-miterlimit="10" stroke-width="0.5"/><path d="M332.74,96.05l0.87-.17c0.65-.14-4.65-7.14-10.88-12.31,6.64,2.3,12.73,11,12.61,10.64-3.84-11.73-14-19.31-22.9-15.11C322.64,88.22,320.68,98.17,332.74,96.05Z" transform="translate(-45.36 -46.36)" fill="#f1d302" stroke="#020100" stroke-miterlimit="10" stroke-width="0.5"/><path d="M331.63,97.31A11.24,11.24,0,0,1,325.9,97c-5.13,3.46-11.7,2.11-12.06,1.9s5.14,0,9.75-3.24a12.34,12.34,0,0,1-3.14-4.27c-5.17-.34-4,3.89-13.85,5.13C311.7,104.62,324.08,106.51,331.63,97.31Z" transform="translate(-45.36 -46.36)" fill="#f1d302" stroke="#020100" stroke-miterlimit="10" stroke-width="0.5"/><path d="M264.1,199.23c0.15,5.24,4.07,16.28-1,20.55-1.91,1.6-5.67,1-8.12,2.81-3,2.14-4.78,10.19-9.55,9.13-4.47-1-4.59-9.32-7.65-11.5-1.9-1.35-5.14-.14-7.18-1.57-7.44-5.25-.75-13.58-2.81-20.55" transform="translate(-45.36 -46.36)" fill="none" stroke="#000" stroke-miterlimit="10" stroke-width="0.75"/><path d="M336.08,238.56s-18,4.77-35.82-27.57" transform="translate(-45.36 -46.36)" fill="none" stroke="#000" stroke-miterlimit="10" stroke-width="0.7"/><path d="M321,233.8c-2-6.61-7.11-25.2-16.23-25.25-5.18,0-8.37,6.47-11.06,9.95-5.13,6.64-10.3,13.11-19.09,14.66" transform="translate(-45.36 -46.36)" fill="none" stroke="#000" stroke-miterlimit="10" stroke-width="0.7"/><path d="M271.52,211a90.18,90.18,0,0,1,2.63,23.59c-0.15,7.16-2.46,13.47-3.44,20.36-1.07,7.51-.07,2-0.53,5.86-0.2,1.71,1.69,4,.82,5.85-1.06,2.21-9.54,5.36-11.74,7.3a36,36,0,0,0-8.1,10.15c-2.54,4.86-1.29,13.49-3.66,17.26-3.39,5.37-5.88-7.76-7.49-11.62-2.72-6.54-7.91-11.27-11.6-17.22-12.55-20.26-11.31-45.45-4.44-67.46" transform="translate(-45.36 -46.36)" fill="none" stroke="#000" stroke-miterlimit="10" stroke-width="0.7"/><path d="M178.5,231.35c3.62-6,5.88-21.17,14.7-22.14,12-1.33,12.8,23,25.59,22.66" transform="translate(-45.36 -46.36)" fill="none" stroke="#000" stroke-miterlimit="10" stroke-width="0.7"/><path d="M163.94,237.53s13.53,4.9,33.76-26.54" transform="translate(-45.36 -46.36)" fill="none" stroke="#000" stroke-miterlimit="10" stroke-width="0.7"/><path d="M267.75,162.31" transform="translate(-45.36 -46.36)" fill="none" stroke="#000" stroke-miterlimit="10" stroke-width="1.24"/><path d="M259.21,160.91a11.73,11.73,0,0,1,6.25,1.66C261.72,164.89,256,161.14,259.21,160.91Z" transform="translate(-45.36 -46.36)" fill="#f1d302" stroke="#020100" stroke-miterlimit="10"/><path d="M264.82,159.65q-4.36-.5-8.68-1.3" transform="translate(-45.36 -46.36)" fill="none" stroke="#000" stroke-miterlimit="10" stroke-width="0.38"/><path d="M275.94,165.7c0.09,0.18-.28,0-0.88,0s-1,.16-0.88,0a1.23,1.23,0,0,1,.88-0.24A1,1,0,0,1,275.94,165.7Z" transform="translate(-45.36 -46.36)"/><path d="M275.94,165.7c0.09,0.18-.28,0-0.88,0s-1,.16-0.88,0a1.23,1.23,0,0,1,.88-0.24A1,1,0,0,1,275.94,165.7Z" transform="translate(-45.36 -46.36)" fill="none" stroke="#000" stroke-miterlimit="10" stroke-width="0.35"/><path id="Right_Wing" data-name="Right Wing" d="M310.85,203.25a60.9,60.9,0,0,1-.18,9.59,48.09,48.09,0,0,0,9.62-6.44Q315.51,205,310.85,203.25Zm-18.93,42.87c0.09,10.22,1.13,17.49,2.75,17.67,1.83,0.2,3.86-8.66,5-20.9,1.67,12.31,4.06,21.37,5.88,21.34s2.53-9.26,1.84-21.74c3.47,12.18,7.14,21,8.93,20.74s1.15-9.68-1.36-22.14c5.21,11.78,10.11,20.19,11.83,19.66s-0.26-9.91-4.56-22.07c6.87,11.12,12.92,18.9,14.55,18.13s-1.67-9.91-7.71-21.5c8.43,10.19,15.54,17.15,17,16.15s-3.08-9.69-10.76-20.44c9.85,9,17.91,15,19.26,13.76s-4.45-9.24-13.65-18.88c11.12,7.61,20,12.4,21.16,11s-5.75-8.55-16.33-16.85c12.19,6,21.72,9.5,22.69,7.94s-7-7.66-18.75-14.41c13,4.25,23.08,6.34,23.83,4.65,0.48-1.07-2.92-3.3-8.73-6.17-1.68.15-3.38,0.43-5.1,0.43h0A136,136,0,0,1,343,211.28a49.12,49.12,0,0,1-9.82,11.49,47.54,47.54,0,0,1-29.76,11.83l-0.35.52A39.85,39.85,0,0,1,291.92,246.12Zm29.34-39.2a49,49,0,0,1-10.72,7.13,55,55,0,0,1-1.11,6.24,47.31,47.31,0,0,0,15-8.89c1.18-1,2.24-2,3.2-3q-3.1-.74-6.17-1.62Zm-51.76,1.94v61c12-4.62-3.8-10.2,20.25-25.59,19.88-12.72,19.76-36.11,19.08-43.82a141.29,141.29,0,0,0,49.94,9.42,72.64,72.64,0,0,0,28.36-6.41,48.32,48.32,0,0,0,9.14-5.32,134.37,134.37,0,0,1-71.31.55l1.87-.51a133.48,133.48,0,0,0,48.56,3.16c17.66-2.25,28.34-8.54,34.53-13.69,6.23-5.32,8-9.5,8.69-11.49a122.44,122.44,0,0,1-93.12,10.29,8.57,8.57,0,0,0,.08-3.36s-4,6.35-16.54,7.89c-7.52.93-10.73-.45-12.63-1.73,3.68-1.41,9.75,0,9.75,0-17.7-7.31-20.2.19-20.2,0.19,19.24,21.35,5.4,48.09-2.49,53.29s-11-4.62-11-13.08V211A4.07,4.07,0,0,0,269.5,208.86Zm66.4,1.22a51.87,51.87,0,0,1-6.95,7.36,47.62,47.62,0,0,1-22.23,11,42.7,42.7,0,0,1-2.63,5.08,46.49,46.49,0,0,0,28.42-11.58,50.79,50.79,0,0,0,7.42-8c0.81-1.09,1.4-2,1.8-2.64l0.16-.27Q338.88,210.61,335.9,210.08Zm-7.11-1.45c-1.08,1.15-2.31,2.35-3.68,3.54a48.21,48.21,0,0,1-16,9.31l-0.19.69a47.78,47.78,0,0,1-1.73,5.1,46.67,46.67,0,0,0,21.07-10.61,51.1,51.1,0,0,0,6.48-6.79l-0.46-.08Q331.53,209.27,328.79,208.64Z" transform="translate(-45.36 -46.36)" fill="#e6e6e6" stroke="#020100" stroke-miterlimit="10"/><path id="Left_Wing" data-name="Left Wing" d="M174.66,206.41a48.05,48.05,0,0,0,9.62,6.44,61,61,0,0,1-.18-9.59Q179.45,205,174.66,206.41Zm17.21,28.7-0.35-.54a47.55,47.55,0,0,1-29.76-11.87,49.37,49.37,0,0,1-9.82-11.42,136,136,0,0,1-16.72,1.22h0c-1.72,0-3.42-.28-5.1-0.43-5.81,2.86-9.21,5.16-8.73,6.23,0.75,1.69,10.78-.44,23.83-4.69-11.77,6.74-19.72,12.82-18.75,14.39s10.51-1.94,22.7-7.95c-10.58,8.3-17.51,15.44-16.33,16.85s10-3.39,21.16-11c-9.2,9.64-15,17.66-13.65,18.88S149.72,240,159.58,231c-7.68,10.75-12.26,19.43-10.76,20.44s8.61-6,17-16.15c-6,11.59-9.34,20.73-7.71,21.5s7.68-7,14.55-18.13c-4.31,12.16-6.29,21.54-4.56,22.07s6.62-7.88,11.83-19.66c-2.51,12.46-3.15,21.86-1.36,22.14s5.46-8.56,8.92-20.74c-0.68,12.48,0,21.7,1.84,21.74s4.21-9,5.88-21.34c1.15,12.25,3.18,21.1,5,20.9,1.63-.18,2.66-7.44,2.75-17.67A39.9,39.9,0,0,1,191.87,235.1Zm-18.38-28.36q-3.07.88-6.17,1.62c1,1,2,2,3.2,3a47.27,47.27,0,0,0,15,8.89,55.26,55.26,0,0,1-1.11-6.24,49,49,0,0,1-10.72-7.13Zm49,4.23v18.66c0,8.46-3.09,18.28-11,13.08s-21.84-31.94-2.6-53.29c0,0-2.46-7.5-20.16-.19,0,0,6.09-1.41,9.77,0-1.91,1.28-5.1,2.65-12.62,1.73-12.5-1.54-16.54-7.89-16.54-7.89a8.53,8.53,0,0,0,.08,3.36,122.43,122.43,0,0,1-93.12-10.29c0.71,2,2.46,6.17,8.69,11.49,6.19,5.15,16.87,11.44,34.53,13.69a133.47,133.47,0,0,0,48.56-3.16l1.86,0.51a134.39,134.39,0,0,1-71.31-.55,47.73,47.73,0,0,0,9.13,5.32,72.47,72.47,0,0,0,28.33,6.41A141,141,0,0,0,186,200.44c-0.68,7.71-1.16,31.09,18.73,43.82,24,15.39,8.77,21,19.77,25.59v-61S223.5,209.05,222.5,211Zm-69.45,0,0.16,0.27c0.39,0.63,1,1.54,1.8,2.64a50.73,50.73,0,0,0,7.42,8,46.49,46.49,0,0,0,28.42,11.58,42.85,42.85,0,0,1-2.63-5.08,47.63,47.63,0,0,1-22.23-11,52,52,0,0,1-6.95-7.36Q156.06,210.61,153.05,211Zm7.6-1.21-0.46.08a51,51,0,0,0,6.48,6.79,46.66,46.66,0,0,0,21.07,10.61,47.36,47.36,0,0,1-1.73-5.1c-0.07-.23-0.13-0.46-0.19-0.69a48.19,48.19,0,0,1-16-9.31c-1.37-1.2-2.6-2.4-3.68-3.54Q163.42,209.27,160.65,209.79Z" transform="translate(-45.36 -46.36)" fill="#e6e6e6" stroke="#020100" stroke-miterlimit="10"/></svg>